<svg xmlns="http://www.w3.org/2000/svg" width="270" height="200" viewBox="0 0 270 200">
  <g fill="none" fill-rule="evenodd">
    <g transform="translate(17 10)">
      <rect width="232.5" height="126" y="19.5" fill="#E4E4E4" rx="1"/>
      <g stroke-linecap="square" transform="translate(.5)">
        <path stroke="#0E1923" stroke-width="4" d="M47.5658106,176.700323 C47.5658106,176.700323 187.434189,176.700323 187.434189,176.700323 M107.786918,145.273122 L107.786918,170.414883 M117.652011,145.273122 L117.652011,170.414883 M127.517104,145.273122 L127.517104,170.414883 M0.943017657,0.70799707 L234.056982,0.70799707 L234.056982,145.273122 L0.943017657,145.273122 L0.943017657,0.70799707 Z"/>
        <path stroke="#6590DC" stroke-width="3.5" d="M.793220339 23.6563038L.793220339 36M16.6576271.95L16.6576271 36M32.5220339 6.39010252L32.5220339 36M8.72542373 9.38395659L8.72542373 36M24.5898305 27.3956713L24.5898305 36M40.4542373 12.7089186L40.4542373 36" transform="translate(119.45 76)"/>
        <path stroke="#6792DE" stroke-width="3.5" d="M.793220339 18.6563038L.793220339 31M16.6576271 16.1950513L16.6576271 31M32.5220339 1.39010252L32.5220339 31M8.72542373 4.38395659L8.72542373 31M24.5898305 22.3956713L24.5898305 31M40.4542373 7.70891857L40.4542373 31" transform="translate(71.45 81)"/>
      </g>
      <rect width="25" height="30" x="106.5" y="146" fill="#074173"/>
    </g>
    <rect width="270" height="200"/>
  </g>
</svg>
