<svg xmlns="http://www.w3.org/2000/svg" width="64" height="64" viewBox="0 0 64 64">
  <path fill="#3788E8" d="M10.031501 34.2006366C12.1734387 32.1877635 12.2781538 28.8194474 10.2651476 26.6775098 8.25214137 24.5355722 4.88395842 24.430857 2.74202079 26.4438632.60008316 28.4567364.495367983 31.8250524 2.50837422 33.9669901 2.58381705 34.0472229 2.66178794 34.1251938 2.74202079 34.2006366 1.05859459 35.1104745.00691891892 36.8673477 0 38.7808279L0 46.30941C0 46.897252.476607069 47.3738591 1.06444906 47.3738591L11.7089397 47.3738591C12.2967817 47.3738591 12.7733888 46.897252 12.7733888 46.30941L12.7733888 38.7808279C12.7664699 36.8673477 11.7147942 35.1104745 10.031501 34.2006366zM6.38669439 27.1493269C8.15035343 27.1493269 9.58004158 28.579015 9.58004158 30.3426741 9.58004158 32.1063331 8.15035343 33.5360213 6.38669439 33.5360213 4.62303534 33.5360213 3.19334719 32.1063331 3.19334719 30.3426741 3.19520998 28.5798134 4.62383368 27.1511897 6.38669439 27.1493269zM10.6444906 45.244961L2.12889813 45.244961 2.12889813 38.7808279C2.13076091 37.0606782 3.52465696 35.6667822 5.24480665 35.6649194L7.52858212 35.6649194C9.24873181 35.6667822 10.6426279 37.0606782 10.6444906 38.7808279L10.6444906 45.244961zM10.031501 9.2006366C12.1734387 7.1877635 12.2781538 3.8194474 10.2651476 1.67750982 8.25214137-.46442781 4.88395842-.56914299 2.74202079 1.44386325.60008316 3.4567364.495367983 6.8250524 2.50837422 8.9669901 2.58381705 9.0472229 2.66178794 9.1251938 2.74202079 9.2006366 1.05859459 10.1104745.00691891892 11.8673477 0 13.7808279L0 21.30941C0 21.897252.476607069 22.3738591 1.06444906 22.3738591L11.7089397 22.3738591C12.2967817 22.3738591 12.7733888 21.897252 12.7733888 21.30941L12.7733888 13.7808279C12.7664699 11.8673477 11.7147942 10.1104745 10.031501 9.2006366zM6.38669439 2.1493269C8.15035343 2.1493269 9.58004158 3.579015 9.58004158 5.3426741 9.58004158 7.1063331 8.15035343 8.5360213 6.38669439 8.5360213 4.62303534 8.5360213 3.19334719 7.1063331 3.19334719 5.3426741 3.19520998 3.5798134 4.62383368 2.1511897 6.38669439 2.1493269zM10.6444906 20.244961L2.12889813 20.244961 2.12889813 13.7808279C2.13076091 12.0606782 3.52465696 10.6667822 5.24480665 10.6649194L7.52858212 10.6649194C9.24873181 10.6667822 10.6426279 12.0606782 10.6444906 13.7808279L10.6444906 20.244961zM27.031368 34.2006366C29.1733056 32.1877635 29.2780208 28.8194474 27.2650146 26.6775098 25.2521414 24.5355722 21.8838254 24.430857 19.7418877 26.4438632 17.5999501 28.4568695 17.4952349 31.8250524 19.5082412 33.9669901 19.583684 34.0472229 19.6616549 34.1251938 19.7418877 34.2006366 18.0585946 35.1104745 17.0067859 36.8673477 17 38.7808279L17 46.30941C17 46.897252 17.4766071 47.3738591 18.0644491 47.3738591L28.7089397 47.3738591C29.2967817 47.3738591 29.7733888 46.897252 29.7733888 46.30941L29.7733888 38.7808279C29.7663368 36.8673477 28.7146611 35.1104745 27.031368 34.2006366zM23.3865613 27.1493269C25.1502204 27.1493269 26.5799085 28.579015 26.5799085 30.3426741 26.5799085 32.1063331 25.1502204 33.5360213 23.3865613 33.5360213 21.6229023 33.5360213 20.1932141 32.1063331 20.1932141 30.3426741 20.1950769 28.5798134 21.6237006 27.1511897 23.3865613 27.1493269zM27.6443576 45.244961L19.1287651 45.244961 19.1287651 38.7808279C19.1306279 37.0606782 20.5245239 35.6667822 22.2446736 35.6649194L24.5284491 35.6649194C26.2485988 35.6667822 27.6424948 37.0606782 27.6443576 38.7808279L27.6443576 45.244961zM27.031368 9.2006366C29.1733056 7.1877635 29.2780208 3.8194474 27.2650146 1.67750982 25.2521414-.46442781 21.8838254-.56914299 19.7418877 1.44386325 17.5999501 3.4568695 17.4952349 6.8250524 19.5082412 8.9669901 19.583684 9.0472229 19.6616549 9.1251938 19.7418877 9.2006366 18.0585946 10.1104745 17.0067859 11.8673477 17 13.7808279L17 21.30941C17 21.897252 17.4766071 22.3738591 18.0644491 22.3738591L28.7089397 22.3738591C29.2967817 22.3738591 29.7733888 21.897252 29.7733888 21.30941L29.7733888 13.7808279C29.7663368 11.8673477 28.7146611 10.1104745 27.031368 9.2006366zM23.3865613 2.1493269C25.1502204 2.1493269 26.5799085 3.579015 26.5799085 5.3426741 26.5799085 7.1063331 25.1502204 8.5360213 23.3865613 8.5360213 21.6229023 8.5360213 20.1932141 7.1063331 20.1932141 5.3426741 20.1950769 3.5798134 21.6237006 2.1511897 23.3865613 2.1493269zM27.6443576 20.244961L19.1287651 20.244961 19.1287651 13.7808279C19.1306279 12.0606782 20.5245239 10.6667822 22.2446736 10.6649194L24.5284491 10.6649194C26.2485988 10.6667822 27.6424948 12.0606782 27.6443576 13.7808279L27.6443576 20.244961zM44.031368 34.2006366C46.1733056 32.1876304 46.2780208 28.8194474 44.2650146 26.6775098 42.2520083 24.5355722 38.8838254 24.430857 36.7418877 26.4438632 34.5999501 28.4567364 34.4952349 31.8250524 36.5082412 33.9669901 36.583684 34.0472229 36.6616549 34.1251938 36.7418877 34.2006366 35.0585946 35.1104745 34.0069189 36.8673477 34 38.7808279L34 46.30941C34 46.897252 34.4766071 47.3738591 35.0644491 47.3738591L45.7089397 47.3738591C46.2967817 47.3738591 46.7733888 46.897252 46.7733888 46.30941L46.7733888 38.7808279C46.7663368 36.8673477 45.7146611 35.1104745 44.031368 34.2006366zM40.3865613 27.1493269C42.1502204 27.1493269 43.5799085 28.579015 43.5799085 30.3426741 43.5799085 32.1063331 42.1502204 33.5360213 40.3865613 33.5360213 38.6229023 33.5360213 37.1932141 32.1063331 37.1932141 30.3426741 37.1950769 28.5798134 38.6237006 27.1511897 40.3865613 27.1493269zM44.6443576 45.244961L36.1287651 45.244961 36.1287651 38.7808279C36.1306279 37.0606782 37.5245239 35.6667822 39.2446736 35.6649194L41.5284491 35.6649194C43.2485988 35.6667822 44.6424948 37.0606782 44.6443576 38.7808279L44.6443576 45.244961zM44.031368 9.2006366C46.1733056 7.1876304 46.2780208 3.8194474 44.2650146 1.67750982 42.2520083-.46442781 38.8838254-.56914299 36.7418877 1.44386325 34.5999501 3.4567364 34.4952349 6.8250524 36.5082412 8.9669901 36.583684 9.0472229 36.6616549 9.1251938 36.7418877 9.2006366 35.0585946 10.1104745 34.0069189 11.8673477 34 13.7808279L34 21.30941C34 21.897252 34.4766071 22.3738591 35.0644491 22.3738591L45.7089397 22.3738591C46.2967817 22.3738591 46.7733888 21.897252 46.7733888 21.30941L46.7733888 13.7808279C46.7663368 11.8673477 45.7146611 10.1104745 44.031368 9.2006366zM40.3865613 2.1493269C42.1502204 2.1493269 43.5799085 3.579015 43.5799085 5.3426741 43.5799085 7.1063331 42.1502204 8.5360213 40.3865613 8.5360213 38.6229023 8.5360213 37.1932141 7.1063331 37.1932141 5.3426741 37.1950769 3.5798134 38.6237006 2.1511897 40.3865613 2.1493269zM44.6443576 20.244961L36.1287651 20.244961 36.1287651 13.7808279C36.1306279 12.0606782 37.5245239 10.6667822 39.2446736 10.6649194L41.5284491 10.6649194C43.2485988 10.6667822 44.6424948 12.0606782 44.6443576 13.7808279L44.6443576 20.244961zM61.031368 34.2006366C63.1733056 32.1876304 63.2780208 28.8194474 61.2650146 26.6775098 59.2520083 24.5355722 55.8838254 24.430857 53.7418877 26.4438632 51.5999501 28.4567364 51.4952349 31.8250524 53.5082412 33.9669901 53.583684 34.0472229 53.6616549 34.1251938 53.7418877 34.2006366 52.0585946 35.1104745 51.0069189 36.8673477 51 38.7808279L51 46.30941C51 46.897252 51.4766071 47.3738591 52.0644491 47.3738591L62.7089397 47.3738591C63.2967817 47.3738591 63.7733888 46.897252 63.7733888 46.30941L63.7733888 38.7808279C63.7663368 36.8673477 62.7146611 35.1104745 61.031368 34.2006366zM57.3865613 27.1493269C59.1502204 27.1493269 60.5799085 28.579015 60.5799085 30.3426741 60.5799085 32.1063331 59.1502204 33.5360213 57.3865613 33.5360213 55.6229023 33.5360213 54.1932141 32.1063331 54.1932141 30.3426741 54.1950769 28.5798134 55.6237006 27.1511897 57.3865613 27.1493269zM61.6443576 45.244961L53.1287651 45.244961 53.1287651 38.7808279C53.1306279 37.0606782 54.5245239 35.6667822 56.2446736 35.6649194L58.5284491 35.6649194C60.2485988 35.6667822 61.6424948 37.0606782 61.6443576 38.7808279L61.6443576 45.244961zM61.031368 9.2006366C63.1733056 7.1876304 63.2780208 3.8194474 61.2650146 1.67750982 59.2520083-.46442781 55.8838254-.56914299 53.7418877 1.44386325 51.5999501 3.4567364 51.4952349 6.8250524 53.5082412 8.9669901 53.583684 9.0472229 53.6616549 9.1251938 53.7418877 9.2006366 52.0585946 10.1104745 51.0069189 11.8673477 51 13.7808279L51 21.30941C51 21.897252 51.4766071 22.3738591 52.0644491 22.3738591L62.7089397 22.3738591C63.2967817 22.3738591 63.7733888 21.897252 63.7733888 21.30941L63.7733888 13.7808279C63.7663368 11.8673477 62.7146611 10.1104745 61.031368 9.2006366zM57.3865613 2.1493269C59.1502204 2.1493269 60.5799085 3.579015 60.5799085 5.3426741 60.5799085 7.1063331 59.1502204 8.5360213 57.3865613 8.5360213 55.6229023 8.5360213 54.1932141 7.1063331 54.1932141 5.3426741 54.1950769 3.5798134 55.6237006 2.1511897 57.3865613 2.1493269zM61.6443576 20.244961L53.1287651 20.244961 53.1287651 13.7808279C53.1306279 12.0606782 54.5245239 10.6667822 56.2446736 10.6649194L58.5284491 10.6649194C60.2485988 10.6667822 61.6424948 12.0606782 61.6443576 13.7808279L61.6443576 20.244961z" transform="translate(0 8)"/>
</svg>
