<svg xmlns="http://www.w3.org/2000/svg" width="64" height="64" viewBox="0 0 64 64">
  <g fill="#3788E8" transform="translate(0 2)">
    <path d="M7.476875 28.5335C7.13525 28.14525 6.543625 28.10775 6.155625 28.449375 4.83475 29.612125 3.691875 30.9565 2.75875 32.445 2.484125 32.883125 2.616625 33.460875 3.05475 33.7355 3.209375 33.832375 3.38125 33.878625 3.551125 33.878625 3.86275 33.878625 4.1675 33.723125 4.345125 33.439625 5.18225 32.10425 6.207625 30.898125 7.39275 29.85475 7.780875 29.513125 7.8185 28.9215 7.476875 28.5335zM5.432125 52.218C4.444375 50.984375 3.64425 49.619125 3.053625 48.160125 2.859625 47.68075 2.31375 47.44975 1.834625 47.643625 1.355375 47.837625 1.124125 48.383375 1.318125 48.86275 1.976875 50.490125 2.86925 52.01275 3.970625 53.38825 4.1555 53.61925 4.4275 53.739375 4.702 53.739375 4.90725 53.739375 5.113875 53.672125 5.2865 53.533875 5.690125 53.21075 5.755375 52.621625 5.432125 52.218zM1.61 37.18975C1.107 37.071.602625 37.38275.483875 37.886.16275 39.24725 0 40.652875 0 42.063625 0 42.411875.01 42.763875.029625 43.1095.058 43.607625.47075 43.9925.9635 43.9925.981375 43.9925.9995 43.992 1.017625 43.991 1.53375 43.961625 1.9285 43.51925 1.899 43.003125 1.881375 42.69275 1.872375 42.376625 1.872375 42.06375 1.872375 40.797375 2.018375 39.536375 2.30625 38.315875 2.424875 37.812625 2.11325 37.308375 1.61 37.18975zM13.645 57.69675C12.13175 57.26325 10.690625 56.61075 9.36125 55.757625 8.926 55.478125 8.346875 55.604625 8.06775 56.03975 7.788375 56.474875 7.91475 57.054 8.349875 57.33325 9.832625 58.285 11.44075 59.013 13.129375 59.49675 13.2155 59.521375 13.30225 59.53325 13.387625 59.53325 13.79475 59.53325 14.1695 59.2655 14.287125 58.854625 14.4295 58.357625 14.142 57.839125 13.645 57.69675zM36.1455 39.97375C36.086375 39.460125 35.62175 39.091375 35.108625 39.1505 34.595 39.2095 34.22625 39.67375 34.285375 40.187375 34.356375 40.80575 34.392375 41.437 34.392375 42.063875 34.392375 43.648875 34.165 45.214875 33.716625 46.718375 33.568875 47.213625 33.85075 47.735 34.346375 47.882875 34.435625 47.9095 34.52575 47.922125 34.61425 47.922125 35.0175 47.922125 35.389875 47.659375 35.511 47.25325 36.011125 45.576 36.26475 43.83 36.26475 42.06375 36.26475 41.365875 36.224625 40.662625 36.1455 39.97375zM27.0165 26.25325C25.482 25.38925 23.83425 24.756 22.119 24.371125 21.614875 24.25825 21.11375 24.575125 21.000625 25.079625 20.887375 25.584125 21.204625 26.084875 21.709125 26.198 23.246 26.542875 24.722625 27.110375 26.097875 27.88475 26.243125 27.9665 26.40075 28.005375 26.556375 28.005375 26.883375 28.005375 27.201125 27.833625 27.373 27.528375 27.626625 27.07775 27.467 26.507 27.0165 26.25325zM24.706625 57.985875C24.53575 57.498125 24.00175 57.241125 23.5135 57.41225 22.030625 57.932125 20.477375 58.23275 18.897 58.305875 18.3805 58.329875 17.981125 58.767875 18.005 59.284375 18.02825 59.786125 18.442375 60.17725 18.9395 60.17725 18.954125 60.17725 18.968875 60.177 18.9835 60.17625 20.74575 60.094625 22.47825 59.759125 24.132875 59.179125 24.62075 59.008125 24.877625 58.473875 24.706625 57.985875zM23.929625 2.96925C23.662625 2.526625 23.087125 2.38425 22.644375 2.651375 20.017 4.236875 17.81775 6.479375 16.2845 9.1365 14.7035 11.876375 13.867875 15.00575 13.867875 18.186625 13.867875 20.265 14.21425 22.28875 14.896875 24.22 13.6125 24.4515 12.357875 24.820625 11.152625 25.32375 10.6755 25.522875 10.450125 26.071125 10.64925 26.548375 10.79925 26.907625 11.147125 27.124125 11.513625 27.124125 11.633875 27.124125 11.756 27.100875 11.873875 27.051625 13.203875 26.496375 14.6015 26.12475 16.033375 25.94025 16.093875 25.9525 16.15525 25.961 16.21775 25.961 16.342125 25.961 16.4685 25.936125 16.589875 25.883375 16.637375 25.86275 16.6815 25.837875 16.72375 25.81075 17.07825 25.647875 17.307 25.27325 17.264375 24.86375 17.236 24.59325 17.094875 24.362625 16.89325 24.21175 16.12825 22.297375 15.740125 20.273 15.740125 18.186625 15.740125 12.437125 18.68275 7.228875 23.61175 4.2545 24.054375 3.9875 24.19675 3.412 23.929625 2.96925z"/>
    <path d="M49.10275,24.220625 C49.7855,22.288375 50.132375,20.26375 50.132375,18.1865 C50.132375,8.188375 41.99825,0.054125 32,0.054125 C31.027125,0.054125 30.050625,0.131875 29.097625,0.28525 C28.587125,0.3675 28.239875,0.847875 28.322125,1.358375 C28.404375,1.868875 28.885,2.216 29.39525,2.133875 C30.250125,1.99625 31.1265,1.9265 32,1.9265 C40.96575,1.9265 48.26,9.22075 48.26,18.1865 C48.26,20.187625 47.90175,22.1335 47.196625,23.98 C46.757625,23.948 46.314625,23.931125 45.867625,23.931125 C42.957625,23.931125 40.17775,24.599875 37.605375,25.918875 C35.471625,27.013 33.552125,28.544375 32,30.3825 C31.874125,30.23325 31.74675,30.08525 31.616,29.939875 C31.270125,29.5555 30.678125,29.524375 30.293875,29.87 C29.9095,30.215875 29.87825,30.80775 30.224,31.192125 C30.43625,31.428 30.639125,31.671 30.836625,31.918 C28.805,34.917875 27.73475,38.41025 27.73475,42.063375 C27.73475,45.715125 28.80425,49.20625 30.83675,52.208625 C30.04725,53.196125 29.147625,54.09075 28.149625,54.872375 C27.7425,55.19125 27.671,55.779625 27.989875,56.186625 C28.1745,56.4225 28.4495,56.545625 28.7275,56.545625 C28.929375,56.545625 29.132875,56.4805 29.304125,56.346375 C30.291875,55.57275 31.193125,54.69975 31.999125,53.7435 C33.551,55.581625 35.470875,57.113625 37.605125,58.207875 C40.1775,59.526875 42.957375,60.19575 45.8675,60.19575 C47.55725,60.19575 49.230625,59.96325 50.84125,59.504875 C51.3385,59.363375 51.627,58.8455 51.485375,58.348125 C51.343875,57.850875 50.82575,57.562375 50.328625,57.704 C48.884875,58.115 47.383875,58.323375 45.8675,58.323375 C40.6855,58.323375 35.933125,55.9385 32.83025,51.782 L32.75425,51.679625 C30.69525,48.87775 29.607,45.5525 29.607,42.06325 C29.607,39.0275 30.431625,36.11625 31.9995,33.568625 C32.3045,34.065375 32.583,34.5785 32.83325,35.106125 C32.993375,35.44375 33.329375,35.6415 33.679875,35.6415 C33.81425,35.6415 33.95075,35.612375 34.080375,35.551 C34.5475,35.3295 34.746625,34.77125 34.52525,34.304 C34.13175,33.474125 33.67475,32.6775 33.161,31.917875 C36.2665,28.025125 40.866875,25.803375 45.86775,25.803375 C54.833625,25.803375 62.12775,33.097625 62.12775,42.063375 C62.12775,47.04975 59.886375,51.691625 55.97825,54.798625 C55.5735,55.120375 55.506375,55.709375 55.828125,56.114 C56.15,56.51875 56.73875,56.586 57.1435,56.264125 C61.50075,52.80025 64,47.62425 64,42.063625 C64,33.169375 57.562875,25.750625 49.10275,24.220625 Z"/>
  </g>
</svg>
