<svg xmlns="http://www.w3.org/2000/svg" width="64" height="64" viewBox="0 0 64 64">
  <g fill="#3788E8">
    <path d="M50.3877447,30.7560851 C50.0051064,30.5974468 49.5666383,30.6852766 49.2745532,30.9773617 L30.9024681,49.3494468 C30.610383,49.6415319 30.5225532,50.0806809 30.6811915,50.4626383 C30.8391489,50.8445957 31.2115745,51.0931064 31.6248511,51.0931064 L49.9969362,51.0931064 C50.5613617,51.0931064 51.0182128,50.6362553 51.0182128,50.0718298 L51.0182128,31.6997447 C51.0182128,31.2864681 50.7690213,30.9140426 50.3877447,30.7560851 Z M48.9756596,49.0505532 L34.0902128,49.0505532 L48.9756596,34.1651064 L48.9756596,49.0505532 Z"/>
    <path d="M62.9542128.418042553C62.5722553.258723404 62.1324255.347234043 61.8410213.639319149L49.7048511 12.7761702C49.7048511 12.7761702 49.7041702 12.7761702 49.7041702 12.7768511 49.7041702 12.7775319 49.7041702 12.7775319 49.7034894 12.7775319L.564425532 61.9159149C.272340426 62.208.184510638 62.6471489.343148936 63.0291064.501106383 63.4110638.873531915 63.6595745 1.28680851 63.6595745L62.5634043 63.6595745C63.1278298 63.6595745 63.5846809 63.2027234 63.5846809 62.6382979L63.5846809 1.36170213C63.5846809.948425532 63.3354894.576 62.9542128.418042553zM61.5421277 61.6170213L3.75217021 61.6170213 13.4236596 51.9455319 16.6617872 55.1836596C16.8612766 55.3831489 17.1227234 55.4825532 17.3841702 55.4825532 17.645617 55.4825532 17.9070638 55.3831489 18.1065532 55.1836596 18.5055319 54.7853617 18.5055319 54.1378723 18.1065532 53.7395745L14.8684255 50.5014468 17.124766 48.2451064 18.7268085 49.8471489C18.925617 50.0466383 19.1877447 50.1460426 19.4491915 50.1460426 19.7106383 50.1460426 19.9720851 50.0466383 20.1715745 49.8471489 20.5705532 49.4488511 20.5705532 48.8020426 20.1715745 48.4030638L18.5695319 46.8010213 20.8251915 44.5453617 24.0633191 47.7834894C24.2628085 47.9829787 24.5242553 48.082383 24.7857021 48.082383 25.0471489 48.082383 25.3085957 47.9829787 25.5080851 47.7834894 25.9070638 47.3851915 25.9070638 46.7377021 25.5080851 46.3394043L22.2699574 43.1012766 24.525617 40.845617 26.1276596 42.4476596C26.3271489 42.6471489 26.5885957 42.7465532 26.8500426 42.7465532 27.1114894 42.7465532 27.3729362 42.6471489 27.5724255 42.4476596 27.9714043 42.0493617 27.9714043 41.4018723 27.5724255 41.0035745L25.970383 39.4015319 28.2260426 37.1458723 31.4641702 40.384C31.6636596 40.5834894 31.9251064 40.6828936 32.1865532 40.6828936 32.448 40.6828936 32.7094468 40.5834894 32.9089362 40.384 33.3079149 39.9850213 33.3079149 39.3382128 32.9089362 38.9399149L29.6708085 35.7017872 31.9271489 33.4454468 33.5291915 35.0474894C33.7286809 35.2469787 33.9901277 35.346383 34.2515745 35.346383 34.5130213 35.346383 34.7744681 35.2469787 34.9739574 35.0474894 35.3729362 34.6491915 35.3729362 34.0017021 34.9739574 33.6034043L33.3691915 32 35.6248511 29.7443404 38.8629787 32.9824681C39.0624681 33.1819574 39.3239149 33.2813617 39.5853617 33.2813617 39.8468085 33.2813617 40.1082553 33.1819574 40.3077447 32.9824681 40.7067234 32.5834894 40.7067234 31.9366809 40.3077447 31.538383L37.069617 28.3002553 39.3259574 26.0439149 40.928 27.6459574C41.1268085 27.8454468 41.3889362 27.9448511 41.650383 27.9448511 41.9118298 27.9448511 42.1732766 27.8454468 42.372766 27.6459574 42.7717447 27.2476596 42.7717447 26.6008511 42.372766 26.2018723L40.7693617 24.5991489 43.0250213 22.3434894 46.2631489 25.581617C46.4626383 25.7811064 46.7240851 25.8805106 46.9855319 25.8805106 47.2469787 25.8805106 47.5084255 25.7811064 47.7079149 25.581617 48.1068936 25.1833191 48.1068936 24.5358298 47.7079149 24.1375319L44.4697872 20.8994043 46.7254468 18.6437447 48.3274894 20.2457872C48.5269787 20.4452766 48.7884255 20.5446809 49.0498723 20.5446809 49.3113191 20.5446809 49.572766 20.4452766 49.7722553 20.2457872 50.171234 19.8474894 50.171234 19.2 49.7722553 18.8017021L48.1702128 17.1996596 50.4265532 14.9433191 53.6646809 18.1814468C53.8641702 18.3809362 54.125617 18.4803404 54.3870638 18.4803404 54.6485106 18.4803404 54.9099574 18.3809362 55.1094468 18.1814468 55.5084255 17.7831489 55.5084255 17.1356596 55.1094468 16.7373617L51.8713191 13.499234 61.5421277 3.82706383 61.5421277 61.6170213zM2.94059574 39.5125106C3.01140426 39.5125106 3.08357447 39.5050213 3.15438298 39.4900426L10.0139574 38.020766C10.2815319 37.9765106 10.5123404 37.8301277 10.6668936 37.6211064L38.8493617 9.43795745C39.0665532 9.22076596 39.1748085 8.91642553 39.1434894 8.6107234L38.8895319 6.15965957C38.8650213 5.92680851 38.7615319 5.70893617 38.5954043 5.54280851L35.8917447 2.83914894C35.725617 2.67302128 35.5084255 2.56953191 35.2748936 2.54502128L32.8238298 2.29174468C32.516766 2.26042553 32.2137872 2.368 31.9965957 2.58587234L3.69702128 30.884766C3.66365957 30.9181277 3.64187234 30.9589787 3.6132766 30.9964255 3.59285106 31.0236596 3.57106383 31.0474894 3.5533617 31.076766 3.49412766 31.1741277 3.44714894 31.277617 3.4226383 31.3879149 3.4226383 31.3892766 3.4212766 31.3906383 3.42059574 31.3926809L1.94246809 38.276766C1.87029787 38.6158298 1.97378723 38.9685106 2.21889362 39.2129362 2.41225532 39.4069787 2.67302128 39.5125106 2.94059574 39.5125106zM4.27029787 37.1622128L5.22485106 32.7169362 6.40204255 32.8388085 8.59438298 35.0311489 8.71693617 36.2097021 4.27029787 37.1622128zM33.0975319 4.37310638L34.7043404 4.53923404 36.8953191 6.73021277 37.0621277 8.33702128 10.6219574 34.7778723 10.5892766 34.4599149C10.564766 34.2270638 10.4612766 34.0091915 10.2951489 33.8437447L7.59012766 31.1387234C7.42468085 30.9725957 7.20680851 30.8691064 6.9732766 30.8445957L6.65804255 30.8119149 33.0975319 4.37310638z"/>
  </g>
</svg>
