<svg xmlns="http://www.w3.org/2000/svg" width="64" height="64" viewBox="0 0 64 64">
  <g fill="#3788E8">
    <path d="M40.016125,45.09075 C35.560375,45.09075 31.9355,41.46575 31.9355,37.010125 C31.9355,36.492375 31.51575,36.072625 30.998,36.072625 C30.48025,36.072625 30.0605,36.492375 30.0605,37.010125 C30.0605,42.49975 34.526625,46.96575 40.016125,46.96575 C40.533875,46.96575 40.953625,46.546 40.953625,46.02825 C40.953625,45.5105 40.533875,45.09075 40.016125,45.09075 Z"/>
    <path d="M30.998,28.0565 C26.061,28.0565 22.044375,32.073125 22.044375,37.010125 C22.044375,42.31275 24.377375,47.3215 28.445125,50.75175 C28.621,50.900125 28.835625,50.972625 29.049,50.972625 C29.31575,50.972625 29.58075,50.859375 29.766125,50.6395 C30.099875,50.243625 30.049625,49.65225 29.653875,49.3185 C26.009625,46.24525 23.9195,41.759 23.9195,37.01025 C23.919375,33.106875 27.094875,29.9315 30.998,29.9315 C34.901125,29.9315 38.076625,33.107 38.076625,37.010125 C38.076625,37.527875 38.496375,37.947625 39.014125,37.947625 C39.531875,37.947625 39.951625,37.527875 39.951625,37.010125 C39.951625,32.073125 35.935,28.0565 30.998,28.0565 Z"/>
    <path d="M30.998,33.9395 C32.691,33.9395 34.0685,35.317 34.0685,37.01 C34.0685,39.737 36.287125,41.9555 39.014,41.9555 C41.740875,41.9555 43.959625,39.737 43.959625,37.010125 C43.959625,29.863 38.145,24.0485 30.998,24.0485 C23.851,24.0485 18.036375,29.863125 18.036375,37.010125 C18.036375,39.901125 18.593875,42.718125 19.693375,45.382625 C19.891,45.86125 20.439125,46.089 20.917625,45.891625 C21.39625,45.694125 21.624125,45.146 21.426625,44.667375 C20.421125,42.23075 19.91125,39.6545 19.91125,37.01 C19.91125,30.89675 24.88475,25.923375 30.997875,25.923375 C37.111,25.923375 42.0845,30.896875 42.0845,37.01 C42.0845,38.703125 40.707,40.0805 39.014,40.0805 C37.321,40.0805 35.9435,38.703 35.9435,37.01 C35.9435,34.283 33.724875,32.0645 30.998,32.0645 C28.271125,32.0645 26.0525,34.283125 26.0525,37.01 C26.0525,44.709625 32.316625,50.97375 40.016125,50.97375 C40.533875,50.97375 40.953625,50.554 40.953625,50.03625 C40.953625,49.5185 40.533875,49.09875 40.016125,49.09875 C33.350375,49.09875 27.9275,43.67575 27.9275,37.01 C27.9275,35.316875 29.305,33.9395 30.998,33.9395 Z"/>
    <path d="M30.998,20.040375 C21.640875,20.040375 14.02825,27.653 14.02825,37.010125 C14.02825,37.527875 14.448,37.947625 14.96575,37.947625 C15.4835,37.947625 15.90325,37.527875 15.90325,37.010125 C15.90325,28.686875 22.67475,21.915375 30.998,21.915375 C39.32125,21.915375 46.09275,28.686875 46.09275,37.010125 C46.09275,37.527875 46.5125,37.947625 47.03025,37.947625 C47.548,37.947625 47.96775,37.527875 47.96775,37.010125 C47.96775,27.653 40.355125,20.040375 30.998,20.040375 Z"/>
    <path d="M45.6795,22.039 C41.73025,18.1655 36.516125,16.032125 30.997875,16.032125 C24.988,16.03225 19.25325,18.626 15.2645,23.148375 C14.922,23.536625 14.959125,24.129125 15.3475,24.4715 C15.52575,24.62875 15.746875,24.705875 15.96725,24.705875 C16.227,24.705875 16.4855,24.598625 16.670625,24.3885 C20.30375,20.2695 25.525875,17.907125 30.998,17.907125 C36.02225,17.907125 40.77,19.849875 44.366625,23.377625 C44.736375,23.740125 45.329875,23.734375 45.692375,23.36475 C46.054875,22.995 46.049125,22.4015 45.6795,22.039 Z"/>
    <path d="M43.4925 15.371125C39.718125 13.1815 35.3975 12.024125 30.997875 12.024125 27.549875 12.024125 24.195625 12.724625 21.028375 14.106375 20.553875 14.313375 20.336875 14.866 20.544 15.340625 20.751125 15.81525 21.3035 16.032125 21.77825 15.825125 24.707625 14.547125 27.8095 13.89925 30.998 13.89925 35.067625 13.89925 39.06275 14.969125 42.551625 16.993 42.69975 17.079 42.8615 17.11975 43.02125 17.11975 43.3445 17.11975 43.659125 16.95225 43.833 16.6525 44.092875 16.204625 43.940375 15.631 43.4925 15.371125zM7.951625 0L.9375 0C.41975 0 0 .41975 0 .9375L0 7.951625C0 8.469375.41975 8.889125.9375 8.889125 1.45525 8.889125 1.875 8.469375 1.875 7.951625L1.875 1.875 7.951625 1.875C8.469375 1.875 8.889125 1.45525 8.889125.9375 8.889125.41975 8.469375 0 7.951625 0zM63.0625 0L56.048375 0C55.530625 0 55.110875.41975 55.110875.9375 55.110875 1.45525 55.530625 1.875 56.048375 1.875L62.125 1.875 62.125 7.951625C62.125 8.469375 62.54475 8.889125 63.0625 8.889125 63.58025 8.889125 64 8.469375 64 7.951625L64 .9375C64 .41975 63.58025 0 63.0625 0zM63.0625 55.110875C62.54475 55.110875 62.125 55.530625 62.125 56.048375L62.125 62.125 56.048375 62.125C55.530625 62.125 55.110875 62.54475 55.110875 63.0625 55.110875 63.58025 55.530625 64 56.048375 64L63.0625 64C63.58025 64 64 63.58025 64 63.0625L64 56.048375C64 55.530625 63.58025 55.110875 63.0625 55.110875zM7.951625 62.125L1.875 62.125 1.875 56.048375C1.875 55.530625 1.45525 55.110875.9375 55.110875.41975 55.110875 0 55.530625 0 56.048375L0 63.0625C0 63.58025.41975 64 .9375 64L7.951625 64C8.469375 64 8.889125 63.58025 8.889125 63.0625 8.889125 62.54475 8.469375 62.125 7.951625 62.125z"/>
    <path d="M50.26825 10.800875C44.93025 6.192 38.09725 3.787125 31.027875 4.02875 23.921625 4.27175 17.2375 7.176125 12.206875 12.206875 7.176125 17.237625 4.27175 23.92175 4.02875 31.027875 3.787 38.09725 6.192125 44.930375 10.800875 50.26825 10.98625 50.483 11.24775 50.593125 11.510875 50.593125 11.727875 50.593125 11.946 50.518125 12.123125 50.36525 12.515 50.026875 12.558375 49.434875 12.22 49.043 7.920625 44.06325 5.677 37.688125 5.9025 31.091875 6.129125 24.462125 8.838875 18.226125 13.5325 13.5325 18.226125 8.838875 24.462125 6.129125 31.091875 5.9025 37.68825 5.67825 44.06325 7.920625 49.042875 12.22 49.434875 12.558375 50.026875 12.515 50.365125 12.123125 50.7035 11.73125 50.660125 11.13925 50.26825 10.800875zM53.19925 13.73175C52.860875 13.33975 52.268875 13.296375 51.877 13.634875 51.485125 13.97325 51.44175 14.56525 51.780125 14.957125 56.0795 19.93675 58.323125 26.311875 58.097625 32.908125 57.871 39.537875 55.16125 45.773875 50.467625 50.4675 45.774 55.161125 39.538 57.870875 32.90825 58.0975 26.312875 58.323 19.936875 56.079375 14.95725 51.78 14.56525 51.441625 13.97325 51.485 13.635 51.876875 13.296625 52.26875 13.34 52.86075 13.731875 53.199125 18.82525 57.596625 25.279625 59.987875 32.00175 59.987875 32.324625 59.987875 32.64825 59.982375 32.972375 59.97125 40.078625 59.72825 46.76275 56.823875 51.793375 51.793125 56.824125 46.762375 59.7285 40.07825 59.9715 32.972125 60.213125 25.902875 57.808 19.06975 53.19925 13.73175z"/>
  </g>
</svg>
