<svg xmlns="http://www.w3.org/2000/svg" width="64" height="64" viewBox="0 0 64 64">
  <g fill="none" fill-rule="evenodd">
    <path fill="#3788E8" fill-rule="nonzero" d="M62.4197974,26 C59.6253014,11.7505847 47.0681175,1 32,1 C14.8791728,1 1,14.8791728 1,32 C1,49.1208272 14.8791728,63 32,63 C46.7135505,63 59.0329464,52.7494054 62.2064036,39 L60.1495264,39 C57.0180004,51.6345509 45.6027091,61 32,61 C15.9837423,61 3,48.0162577 3,32 C3,15.9837423 15.9837423,3 32,3 C45.959207,3 57.6148386,12.8627786 60.3785593,26 L62.4197974,26 Z"/>
    <path fill="#3788E8" fill-rule="nonzero" d="M55.3694118,26.508947 C52.8864795,15.9001431 43.3660653,7.99963191 32.0003879,7.99963191 C18.7455539,7.99963191 8.00038789,18.7447979 8.00038789,31.9996319 C8.00038789,45.2544659 18.7455539,55.9996319 32.0003879,55.9996319 C44.0631546,55.9996319 54.0473661,47.1002796 55.7456507,35.508947 L53.7220179,35.508947 C52.0416642,45.9912091 42.9562598,53.9996319 32.0003879,53.9996319 C19.8501234,53.9996319 10.0003879,44.1498964 10.0003879,31.9996319 C10.0003879,19.8493674 19.8501234,9.99963191 32.0003879,9.99963191 C42.254859,9.99963191 50.870693,17.0154712 53.3096871,26.508947 L55.3694118,26.508947 Z" transform="rotate(93 31.873 32)"/>
    <path fill="#3788E8" fill-rule="nonzero" d="M48.7130673,28.8691152 L46.6735246,28.8691152 C45.233428,22.087906 39.2112611,17.0003925 32.0008417,17.0003925 C23.7165705,17.0003925 17.0008417,23.7161213 17.0008417,32.0003925 C17.0008417,40.2846637 23.7165705,47.0003925 32.0008417,47.0003925 C39.3040231,47.0003925 45.3881817,41.7811352 46.7268228,34.8691152 L48.759817,34.8691152 C47.3963758,42.8918841 40.411968,49.0003925 32.0008417,49.0003925 C22.612001,49.0003925 15.0008417,41.3892332 15.0008417,32.0003925 C15.0008417,22.6115518 22.612001,15.0003925 32.0008417,15.0003925 C40.3199714,15.0003925 47.2434212,20.9760081 48.7130673,28.8691152 Z" transform="rotate(-130 31.88 32)"/>
    <path fill="#3788E8" fill-rule="nonzero" d="M26,29 L26,39 L38,39 L38,29 L26,29 Z M26.0131218,27 C26.2189563,23.0909841 28.8207029,20 32,20 C35.1792971,20 37.7810437,23.0909841 37.9868782,27 L40,27 L40,41 L24,41 L24,27 L26.0131218,27 Z M28.0163066,27 L35.9836934,27 C35.7999739,24.19675 34.0865609,22 32,22 C29.9134391,22 28.2000261,24.19675 28.0163066,27 Z M31,32 L33,32 L33,36 L31,36 L31,32 Z"/>
  </g>
</svg>
