<svg xmlns="http://www.w3.org/2000/svg" width="64" height="64" viewBox="0 0 64 64">
  <g fill="none" transform="translate(7)">
    <rect width="3.008" height="3.01" x="33.311" y="60.575" fill="#9B9B9B"/>
    <path fill="#3788E8" d="M49.9471515,15.721697 C49.9452121,15.6402424 49.9393939,15.5597576 49.9248485,15.4812121 C49.9209697,15.465697 49.9170909,15.4511515 49.9151515,15.4375758 C49.897697,15.3619394 49.8734545,15.286303 49.8472727,15.2145455 C49.8356364,15.1873939 49.8249697,15.1602424 49.8113939,15.1330909 C49.7871515,15.0778182 49.7580606,15.0254545 49.7260606,14.9721212 C49.7105455,14.9469091 49.696,14.921697 49.6766061,14.8974545 C49.6310303,14.8315152 49.5815758,14.7675152 49.5233939,14.7093333 C49.5195152,14.7044848 49.5156364,14.6986667 49.5117576,14.6938182 L35.6761212,0.858181818 C35.6722424,0.85430303 35.6683636,0.850424242 35.6644848,0.846545455 C35.6043636,0.787393939 35.5374545,0.736969697 35.4715152,0.689454545 C35.4492121,0.672 35.424,0.659393939 35.401697,0.643878788 C35.3464242,0.610909091 35.2901818,0.581818182 35.2329697,0.554666667 C35.2087273,0.543030303 35.1835152,0.532363636 35.1592727,0.522666667 C35.0778182,0.490666667 34.9944242,0.463515152 34.9090909,0.447030303 C34.9090909,0.447030303 34.9090909,0.447030303 34.9071515,0.445090909 C34.8198788,0.427636364 34.7306667,0.421818182 34.6424242,0.419878788 C34.6327273,0.419878788 34.6230303,0.416969697 34.614303,0.416969697 L1.98012121,0.418909091 C1.14909091,0.418909091 0.475151515,1.09090909 0.475151515,1.92290909 L0.474181818,25.078303 L3.48218182,25.078303 L3.48412121,3.42690909 L33.110303,3.42690909 L33.110303,15.7575758 C33.110303,16.5876364 33.7832727,17.2606061 34.6152727,17.2606061 L46.9430303,17.2606061 L46.9391515,60.5769697 L39.3270303,60.5769697 L39.3270303,63.5849697 L48.4421818,63.5849697 C49.2732121,63.5849697 49.9461818,62.9110303 49.9461818,62.0809697 L49.9500606,15.7575758 C49.9510303,15.744 49.9471515,15.734303 49.9471515,15.721697 Z M36.1153939,14.2516364 L36.1153939,5.55248485 L44.8145455,14.2516364 L36.1153939,14.2516364 Z"/>
    <rect width="18.55" height="3.01" x="9.237" y="14.254" fill="#3788E8"/>
    <rect width="31.952" height="3.01" x="9.237" y="22.066" fill="#3788E8"/>
    <rect width="25.934" height="3.008" x="15.255" y="29.138" fill="#3788E8"/>
    <rect width="3.01" height="3.008" x="9.237" y="29.138" fill="#3788E8"/>
    <rect width="3.01" height="3.008" x="15.255" y="36.208" fill="#3788E8"/>
    <rect width="3.01" height="3.008" x="9.237" y="36.208" fill="#3788E8"/>
    <rect width="3.01" height="3.007" x="21.273" y="43.277" fill="#3788E8"/>
    <rect width="3.01" height="3.007" x="15.255" y="43.277" fill="#3788E8"/>
    <rect width="3.01" height="3.007" x="9.237" y="43.277" fill="#3788E8"/>
    <rect width="3.01" height="3.01" x="21.273" y="60.575" fill="#3788E8"/>
    <rect width="3.01" height="3.01" x="15.255" y="60.575" fill="#3788E8"/>
    <rect width="3.01" height="3.01" x="9.237" y="60.575" fill="#3788E8"/>
    <rect width="3.01" height="3.008" x=".473" y="29.138" fill="#3788E8"/>
    <rect width="19.916" height="3.009" x="21.273" y="36.208" fill="#3788E8"/>
    <rect width="13.898" height="3.007" x="27.292" y="43.276" fill="#3788E8"/>
    <rect width="3.01" height="3.008" x="21.273" y="50.346" fill="#3788E8"/>
    <rect width="3.01" height="3.01" x="27.292" y="60.575" fill="#3788E8"/>
    <rect width="3.01" height="3.008" x="27.292" y="50.346" fill="#3788E8"/>
    <rect width="3.01" height="3.008" x="15.255" y="50.346" fill="#3788E8"/>
    <rect width="3.01" height="3.008" x="9.237" y="50.346" fill="#3788E8"/>
    <rect width="3.01" height="3.008" x=".473" y="36.208" fill="#3788E8"/>
    <rect width="3.01" height="3.007" x=".473" y="43.277" fill="#3788E8"/>
    <rect width="3.01" height="3.01" x=".473" y="60.575" fill="#3788E8"/>
    <rect width="3.01" height="3.008" x=".473" y="50.346" fill="#3788E8"/>
    <rect width="7.879" height="3.008" x="33.311" y="50.345" fill="#3788E8"/>
  </g>
</svg>
