<svg xmlns="http://www.w3.org/2000/svg" width="64" height="64" viewBox="0 0 64 64">
  <path fill="#3788E8" d="M30,7 L30,54 L58,54 L58,7 M30,5 L58,5 C59.1045695,5 60,5.8954305 60,7 L60,54 C60,55.1045695 59.1045695,56 58,56 L30,56 C28.8954305,56 28,55.1045695 28,54 L28,7 M41.5,3 L47.4493911,3 C47.7255335,3 47.9493911,3.22385763 47.9493911,3.5 L47.9493911,3.64285714 C47.9493911,3.91899952 47.7255335,4.14285714 47.4493911,4.14285714 L41.5,4.14285714 C41.2238576,4.14285714 41,3.91899952 41,3.64285714 L41,3.5 M28,2 C26.8954305,2 26,2.8954305 26,4 L26,60 C26,61.1045695 26.8954305,62 28,62 L60,62 C61.1045695,62 62,61.1045695 62,60 L62,4 C62,2.8954305 61.1045695,2 60,2 M28,0 L60,0 C62.209139,0 64,1.790861 64,4 L64,60 C64,62.209139 62.209139,64 60,64 L28,64 C25.790861,64 24,62.209139 24,60 L24,4 M44,61 C42.8954305,61 42,60.1045695 42,59 C42,57.8954305 42.8954305,57 44,57 C45.1045695,57 46,57.8954305 46,59 M6,49 L6,59 L16,59 L16,49 M6.15384615,47 L15.8461538,47 C17.0356902,47 18,47.9643098 18,49.1538462 L18,58.8461538 C18,60.0356902 17.0356902,61 15.8461538,61 L6.15384615,61 C4.96430977,61 4,60.0356902 4,58.8461538 L4,49.1538462 M5,53 L5,51 L16.7489804,51 L16.7489804,53 M8,47 L10,47 L10,59.5034722 L8,59.5034722 M12,47 L14,47 L14,59.5034722 L12,59.5034722 M5,57 L5,55 L16.7489804,55 L16.7489804,57 M6,32 L6,43 L16,43 L16,32 M6.15384615,30 L15.8461538,30 C17.0356902,30 18,30.8954305 18,32 L18,43 C18,44.1045695 17.0356902,45 15.8461538,45 L6.15384615,45 C4.96430977,45 4,44.1045695 4,43 L4,32 M6.23529412,27 C3.89620577,27 2,28.790861 2,31 L2,58 C2,60.209139 3.89620577,62 6.23529412,62 L15.7647059,62 C18.1037942,62 20,60.209139 20,58 L20,31 C20,28.790861 18.1037942,27 15.7647059,27 M15,25 L15,23.5 C15,22.1192881 16.1192881,21 17.5,21 L19.5,21 C20.8807119,21 22,22.1192881 22,23.5 L22,31 L22,58 C22,61.3137085 19.1857899,64 15.7142857,64 L6.28571429,64 C2.81421014,64 0,61.3137085 0,58 L0,31 C0,27.6862915 2.81421014,25 6.28571429,25 M17,25.1256241 C18.1450443,25.3528057 19.1759172,25.8773467 20,26.6108384 L20,23.5 C20,23.2238576 19.7761424,23 19.5,23 L17.5,23 C17.2238576,23 17,23.2238576 17,23.5 M9.4,28 L12.6,28 C12.8209139,28 13,28.2238576 13,28.5 C13,28.7761424 12.8209139,29 12.6,29 L9.4,29 C9.1790861,29 9,28.7761424 9,28.5"/>
</svg>
