<svg xmlns="http://www.w3.org/2000/svg" width="64" height="64" viewBox="0 0 64 64">
  <g fill="#3788E8" transform="translate(7)">
    <path d="M49.6960059,38.0582265 C49.6960059,36.7742674 49.1961586,35.567384 48.2880389,34.6596459 C47.5812891,33.9534684 46.6927722,33.4981208 45.7288967,33.3291361 C46.5866978,31.5409894 46.2948021,29.3352221 44.8150536,27.8548535 C44.0840268,27.1244467 43.1583075,26.6636619 42.1560372,26.5095582 C42.3906507,25.9378816 42.5142294,25.3204651 42.5142294,24.6840659 C42.5142294,23.4001068 42.014382,22.1932234 41.1062623,21.2854853 C40.4830747,20.6620115 39.7170396,20.2365213 38.883277,20.0276633 L45.9811097,12.9300214 C46.8892293,12.0222833 47.3890767,10.8153999 47.3890767,9.53144076 C47.3890767,8.24748167 46.8892293,7.04059827 45.9811097,6.13324175 C45.0737531,5.22550365 43.8672513,4.72527473 42.5829107,4.72527473 C41.2993331,4.72527473 40.0928313,5.22512207 39.1847116,6.13324175 L23.640603,21.6773504 C21.7303084,23.5883604 18.4048448,24.895738 16.6589085,24.503539 C15.7111063,22.3120803 14.3371938,20.0570437 12.2066897,17.8899573 C10.9551635,16.6170635 9.16258109,16.0420482 7.40968118,16.3553114 C5.67891191,16.6632326 4.21371044,17.802961 3.4895041,19.4036172 C2.96294735,20.5685287 3.11709873,21.9280373 3.89014512,22.9506258 C5.31871655,24.842033 8.60244668,29.8355464 8.24911948,35.3388278 C8.24888098,35.3422142 8.24969181,35.3454575 8.24950106,35.3488438 C8.24916722,35.3559982 8.24702092,35.3625324 8.24683009,35.3697344 C8.23275994,35.8785008 8.2445407,36.3831178 8.26981922,36.8851591 C8.24644851,36.9051434 8.21702047,36.9128224 8.1949375,36.9349054 L0.422501574,44.7073413 C0.275981427,44.8534799 0.170670091,45.0362485 0.118014424,45.236569 C0.0623062136,45.4468102 -1.16403686,50.4639805 5.74530382,57.3733211 C10.7659082,62.3939255 14.787581,63.118895 16.6915798,63.118895 C17.4081549,63.118895 17.8248215,63.0162546 17.8828191,63.0009921 C18.0827581,62.9479549 18.2651451,62.8430251 18.4116653,62.696505 L26.3367263,54.7714439 C26.3378233,54.7703469 26.3380618,54.7688683 26.3391588,54.7677714 C26.6026756,54.7785982 26.8665741,54.7870879 27.1319034,54.7870879 C32.178454,54.7870879 36.9228069,52.8216576 40.491183,49.2532814 L47.299791,42.445055 C47.2998864,42.4449596 47.2998864,42.4448642 47.2999817,42.4447688 L48.2880389,41.4568071 C49.1961586,40.549069 49.6960059,39.3421856 49.6960059,38.0582265 Z M47.3516836,38.0582265 C47.3516836,38.7156593 47.0952733,39.3337912 46.6305297,39.7989164 L42.5340706,43.8949939 C41.6038203,44.8256258 39.9814149,44.823718 39.0526909,43.8953755 C39.0526909,43.8953755 39.0526909,43.8953755 39.0526909,43.8949939 C38.5879473,43.4302503 38.331537,42.8121184 38.331537,42.1546856 C38.331537,41.4972527 38.5879473,40.8791209 39.0526909,40.4139957 L43.14915,36.3175366 C43.6138936,35.852793 44.2320255,35.5967643 44.8898399,35.5967643 C45.5468912,35.5967643 46.1657862,35.852793 46.6305298,36.3179182 C47.0952733,36.7826618 47.3516836,37.4007936 47.3516836,38.0582265 Z M43.1575444,32.994124 L39.0572697,37.0940171 C38.1277825,38.0227412 36.5053771,38.0238858 35.57589,37.0936355 C34.6166408,36.1340049 34.6166408,34.572268 35.57589,33.6126374 L39.6761647,29.5127442 C40.6048888,28.5832571 42.2272941,28.5824939 43.1575444,29.5127442 C44.1167935,30.4723749 44.1167935,32.0344933 43.1575444,32.994124 Z M39.4487532,22.9429945 C39.9134968,23.4081196 40.1699071,24.0266331 40.1699071,24.6840659 C40.1699071,25.3414987 39.9134968,25.9596306 39.4487532,26.4247558 L33.9183808,31.9551282 C32.9888937,32.8834707 31.3680145,32.8849969 30.4370011,31.9551282 C29.477752,30.995116 29.477752,29.4333791 30.4370011,28.4737485 L35.968089,22.9428037 C36.8976237,22.0125057 38.5195045,22.0137459 39.4487532,22.9429945 Z M17.0288814,60.7638889 C16.0345286,60.840583 12.3913662,60.7039835 7.40281302,55.715812 C2.39976047,50.712378 2.27918666,47.062729 2.35320981,46.092033 L8.64327391,39.8016828 C9.3831243,43.3526023 11.1324471,46.613391 13.7726237,49.2532815 C16.4391282,51.919786 19.7624932,53.6902378 23.3777061,54.4153504 L17.0288814,60.7638889 Z M27.1319034,52.4427656 C23.9711318,52.4427656 20.9529218,51.5481914 18.3423639,49.9036554 C18.9190485,49.8365957 19.4842385,49.6960375 20.0188081,49.4684829 C22.1761646,48.5508242 23.4147177,46.5140415 23.4170071,43.8808761 C23.4177703,43.2337454 22.8927397,42.7083333 22.2456091,42.7079517 L22.2448459,42.7079517 C21.5977153,42.7079517 21.0734479,43.2322191 21.0726848,43.8793498 C21.0711585,45.5521214 20.3713722,46.7708333 19.1015309,47.3111263 C17.5809074,47.9572077 15.5787517,47.5052941 14.2023589,46.217424 C11.7591641,43.1740308 10.4834563,39.4153026 10.5899124,35.4476209 C10.9748139,29.1774458 7.34357535,23.6335279 5.76056637,21.5373168 C5.50491927,21.1988705 5.45302668,20.7516788 5.62625624,20.3697344 C6.03681788,19.4604701 6.83657368,18.8385225 7.82024282,18.6633852 C8.82680567,18.4832874 9.81505358,18.8011293 10.5354443,19.5337301 C13.9771415,23.0349511 15.2324834,26.857448 16.007056,30.1350731 C16.1558655,30.765415 16.7846812,31.1549907 17.4173124,31.0065628 C18.0476543,30.8577532 18.4376116,30.2262666 18.2888021,29.5963064 C18.0840936,28.7295386 17.8466661,27.8268562 17.552338,26.9019478 C20.1876498,26.8178608 23.3828574,25.2501143 25.2981122,23.3348595 L40.8422209,7.79075079 C41.7732343,6.8597374 43.3941135,6.8601189 44.3236006,7.79113237 C44.7883443,8.25587599 45.0447545,8.87400783 45.0447545,9.53144068 C45.0447545,10.1888735 44.7883443,10.8070054 44.3236006,11.2721306 L34.3139661,21.2817651 C34.3126306,21.2830529 34.3111998,21.2841499 34.3098643,21.2854853 L28.7794919,26.8162393 C26.9060182,28.6900946 26.9060182,31.738782 28.7794919,33.6126373 C28.7794919,33.6126373 28.7794919,33.6126373 28.7794919,33.6130189 C29.6876116,34.5203754 30.8941134,35.0202227 32.1776909,35.0202227 C32.3017943,35.0202227 32.4244191,35.0115422 32.546853,35.0022893 C32.4487914,36.3475846 32.8921197,37.7250744 33.9183808,38.7515262 C33.9183808,38.7515262 33.9183808,38.7515262 33.9183808,38.7519078 C34.6212674,39.4541742 35.5037746,39.9088065 36.4614974,40.0800805 C36.154387,40.7201046 35.9872148,41.4237542 35.9872148,42.1546856 C35.9872148,43.4382631 36.4870621,44.6451465 37.3951818,45.5528846 C37.3951818,45.5528846 37.3951818,45.5528846 37.3951818,45.5532662 C38.0185125,46.1765969 38.7846907,46.6020872 39.6186441,46.8108498 L38.8336738,47.5957723 C35.7079107,50.7211539 31.5526909,52.4427656 27.1319034,52.4427656 Z"/>
    <path d="M10.2346501,14.3813907 C10.3086734,14.9743394 10.8138626,15.4077949 11.3961275,15.4077949 C11.4449676,15.4077949 11.4938076,15.4047424 11.5434108,15.3986373 C12.1859627,15.3181276 12.6415488,14.7324285 12.5606575,14.0898766 L11.502202,5.63749573 C11.4220738,4.99494386 10.8375195,4.54164709 10.1934413,4.6202491 C9.55088943,4.70075883 9.09530335,5.28645792 9.17619467,5.92900979 L10.2346501,14.3813907 Z" transform="rotate(-42 10.868 10.01)"/>
    <path d="M29.1700871,14.3813908 C29.2441103,14.9743395 29.7492995,15.407795 30.3315645,15.407795 C30.3804045,15.407795 30.4292446,15.4047425 30.4788478,15.3986374 C31.1213996,15.3181277 31.5769857,14.7324286 31.4960944,14.0898767 L30.437639,5.63749579 C30.3575107,4.99494392 29.7729564,4.54164715 29.1288783,4.62024916 C28.4863264,4.70075889 28.0307403,5.28645798 28.1116316,5.92900985 L29.1700871,14.3813908 Z" transform="scale(-1 1) rotate(-39 0 94.173)"/>
    <path d="M19.7023692,9.93712417 C19.7763924,10.5300729 20.2815816,10.9635284 20.8638466,10.9635284 C20.9126866,10.9635284 20.9615267,10.9604759 21.0111299,10.9543708 C21.6536818,10.8738611 22.1092678,10.288162 22.0283765,9.64561011 L20.9699211,1.19322919 C20.8897928,0.550677322 20.3052386,0.0973805601 19.6611604,0.175982563 C19.0186085,0.256492297 18.5630224,0.842191383 18.6439138,1.48474326 L19.7023692,9.93712417 Z" transform="scale(-1 1) rotate(7 0 -326.928)"/>
  </g>
</svg>
