<svg xmlns="http://www.w3.org/2000/svg" width="64" height="64" viewBox="0 0 64 64">
  <path fill="#3788E8" d="M39,8.94444444 L39,17.7777778 L36,17.7777778 L36,6 L60,6 L60,59 L36,59 L36,47.2222222 L39,47.2222222 L39,56.0555556 L57,56.0555556 L57,8.94444444 L39,8.94444444 Z M33.277195,31.06439 L23.8704637,22.0302397 L25.984454,20 L39,32.5 L25.984454,45 L23.8704637,42.9697603 L33.277195,33.93561 L4,33.93561 L4,31.06439 L33.277195,31.06439 Z M4,15 L4,12 L19,12 L19,15 L4,15 Z M4,53 L4,50 L19,50 L19,53 L4,53 Z"/>
</svg>
