<svg xmlns="http://www.w3.org/2000/svg" xmlns:xlink="http://www.w3.org/1999/xlink" width="64" height="64" viewBox="0 0 64 64">
  <defs>
    <rect id="realtime-icon-a" width="64" height="64" x="0" y="0"/>
  </defs>
  <g fill="none" fill-rule="evenodd">
    <mask id="realtime-icon-b" fill="#fff">
      <use xlink:href="#realtime-icon-a"/>
    </mask>
    <g fill="#3788E8" fill-rule="nonzero" mask="url(#realtime-icon-b)">
      <g transform="translate(-4 -5)">
        <path d="M35.5075552,9.99943667 C23.3947393,9.99943667 12.2432703,18.1751202 8.99999461,30.2293474 C8.8250111,30.8815581 9.25358417,31.6428167 9.91055967,31.816401 C10.5675347,31.9899788 11.3344102,31.5445817 11.5091072,30.8922938 C14.4452857,19.9794467 24.5722403,12.5708652 35.5075552,12.5708652 C46.9372819,12.5708652 56.0171019,20.3569613 58.8584903,28.5418474 L50.1777701,25.488276 C49.7404041,25.3375546 49.2552699,25.4299365 48.905113,25.7306224 C48.5549561,26.0313083 48.3929736,26.4946169 48.4801827,26.9460242 C48.5673918,27.3974315 48.8905433,27.7683581 49.3279094,27.9190796 L60.3356292,31.7762224 C60.6959581,31.8995608 61.0927151,31.8590635 61.4202291,31.6655165 C61.7477431,31.4719694 61.9727604,31.1450241 62.0353507,30.7717581 L63.9778894,18.5574724 C64.0555212,18.1463479 63.9268773,17.7234262 63.6330146,17.4236834 C63.339152,17.1239405 62.9167991,16.98484 62.5007506,17.050776 C61.9368416,17.1437561 61.5010182,17.5927737 61.4283073,18.1556867 L60.2951596,25.2271153 C56.2979205,16.9428962 46.9760356,9.99943667 35.5075552,9.99943667 Z M10.0522031,42.1422938 C9.49466186,42.2329673 9.06065356,42.6719849 8.97975983,43.2271153 L7.03722103,55.441401 C6.92120114,55.912265 7.08176543,56.4078916 7.4525145,56.7233204 C7.82326358,57.0387493 8.34118172,57.1203674 8.79209028,56.9344226 C9.24299883,56.7484778 9.55025748,56.326575 9.5868032,55.8431867 L10.7199508,48.7516688 C14.7128944,57.0476252 24.03169,63.9994367 35.5075552,63.9994367 C47.6203698,63.9994367 58.7718408,55.803651 62.0151159,43.7494367 C62.1899236,43.0972581 61.7411998,42.3560438 61.084316,42.1824724 C60.4274316,42.008901 59.680811,42.4343117 59.5060033,43.0864903 C56.5698241,53.9993117 46.4428715,61.4280081 35.5075552,61.4280081 C24.0694659,61.4280081 14.9909474,53.6312181 12.1566201,45.4369367 L20.8373404,48.4905081 C21.2747064,48.6412295 21.7598405,48.5488476 22.1099974,48.2481617 C22.4601543,47.9474758 22.6221369,47.4841672 22.5349278,47.0327599 C22.4477187,46.5813526 22.1245671,46.210426 21.6872011,46.0597046 L10.6794813,42.2025617 C10.4785759,42.1315031 10.2631047,42.110801 10.0522031,42.1422938 Z" transform="rotate(70 35.5 37)"/>
        <path d="M47.4268317,27.6308662 C46.8796174,27.0342151 45.9922277,27.0342151 45.4450134,27.6309681 L33.0694867,41.1268377 L26.554955,34.0225526 C26.0077407,33.4257996 25.120351,33.4257996 24.5730433,34.0225526 C24.0257356,34.6193056 24.0257356,35.5870297 24.5730433,36.1838846 L32.0784841,44.3687848 C32.352138,44.6672122 32.7108123,44.816375 33.0693933,44.816375 C33.4279742,44.816375 33.786742,44.6671103 34.0603024,44.3687848 L47.4268317,29.7921983 C47.9741394,29.1954453 47.9741394,28.2277211 47.4268317,27.6308662 Z"/>
      </g>
    </g>
  </g>
</svg>
