<svg xmlns="http://www.w3.org/2000/svg" width="64" height="64" viewBox="0 0 64 64">
  <g fill="#3788E8">
    <path d="M10.031501 50.7141502C12.1734387 48.701277 12.2781538 45.332961 10.2651476 43.1910233 8.25214137 41.0490857 4.88395842 40.9443705 2.74202079 42.9573768.60008316 44.9702499.495367983 48.338566 2.50837422 50.4805036 2.58381705 50.5607364 2.66178794 50.6387073 2.74202079 50.7141502 1.05859459 51.623988.00691891892 53.3808612 0 55.2943414L0 62.8229235C0 63.4107655.476607069 63.8873726 1.06444906 63.8873726L11.7089397 63.8873726C12.2967817 63.8873726 12.7733888 63.4107655 12.7733888 62.8229235L12.7733888 55.2943414C12.7664699 53.3808612 11.7147942 51.623988 10.031501 50.7141502zM6.38669439 43.6628404C8.15035343 43.6628404 9.58004158 45.0925285 9.58004158 46.8561876 9.58004158 48.6198466 8.15035343 50.0495348 6.38669439 50.0495348 4.62303534 50.0495348 3.19334719 48.6198466 3.19334719 46.8561876 3.19520998 45.0933269 4.62383368 43.6647032 6.38669439 43.6628404zM10.6444906 61.7584745L2.12889813 61.7584745 2.12889813 55.2943414C2.13076091 53.5741917 3.52465696 52.1802957 5.24480665 52.1784329L7.52858212 52.1784329C9.24873181 52.1802957 10.6426279 53.5741917 10.6444906 55.2943414L10.6444906 61.7584745zM27.062553 50.7141502C29.2044906 48.701277 29.3092058 45.332961 27.2961996 43.1910233 25.2833264 41.0490857 21.9150104 40.9443705 19.7730728 42.9573768 17.6311351 44.970383 17.52642 48.338566 19.5394262 50.4805036 19.614869 50.5607364 19.6928399 50.6387073 19.7730728 50.7141502 18.0897796 51.623988 17.0379709 53.3808612 17.031185 55.2943414L17.031185 62.8229235C17.031185 63.4107655 17.5077921 63.8873726 18.0956341 63.8873726L28.7401247 63.8873726C29.3279667 63.8873726 29.8045738 63.4107655 29.8045738 62.8229235L29.8045738 55.2943414C29.7975218 53.3808612 28.7458462 51.623988 27.062553 50.7141502zM23.4177464 43.6628404C25.1814054 43.6628404 26.6110936 45.0925285 26.6110936 46.8561876 26.6110936 48.6198466 25.1814054 50.0495348 23.4177464 50.0495348 21.6540873 50.0495348 20.2243992 48.6198466 20.2243992 46.8561876 20.226262 45.0933269 21.6548857 43.6647032 23.4177464 43.6628404zM27.6755426 61.7584745L19.1599501 61.7584745 19.1599501 55.2943414C19.1618129 53.5741917 20.5557089 52.1802957 22.2758586 52.1784329L24.5596341 52.1784329C26.2797838 52.1802957 27.6736798 53.5741917 27.6755426 55.2943414L27.6755426 61.7584745zM44.093738 50.7141502C46.2356757 48.7011439 46.3403909 45.332961 44.3273846 43.1910233 42.3143784 41.0490857 38.9461954 40.9443705 36.8042578 42.9573768 34.6623202 44.9702499 34.557605 48.338566 36.5706112 50.4805036 36.6460541 50.5607364 36.7240249 50.6387073 36.8042578 50.7141502 35.1209647 51.623988 34.069289 53.3808612 34.0623701 55.2943414L34.0623701 62.8229235C34.0623701 63.4107655 34.5389771 63.8873726 35.1268191 63.8873726L45.7713098 63.8873726C46.3591518 63.8873726 46.8357588 63.4107655 46.8357588 62.8229235L46.8357588 55.2943414C46.8287069 53.3808612 45.7770312 51.623988 44.093738 50.7141502zM40.4489314 43.6628404C42.2125904 43.6628404 43.6422786 45.0925285 43.6422786 46.8561876 43.6422786 48.6198466 42.2125904 50.0495348 40.4489314 50.0495348 38.6852723 50.0495348 37.2555842 48.6198466 37.2555842 46.8561876 37.257447 45.0933269 38.6860707 43.6647032 40.4489314 43.6628404zM44.7067277 61.7584745L36.1911351 61.7584745 36.1911351 55.2943414C36.1929979 53.5741917 37.586894 52.1802957 39.3070437 52.1784329L41.5908191 52.1784329C43.3109688 52.1802957 44.7048649 53.5741917 44.7067277 55.2943414L44.7067277 61.7584745zM61.1249231 50.7141502C63.2668607 48.7011439 63.3715759 45.332961 61.3585696 43.1910233 59.3455634 41.0490857 55.9773805 40.9443705 53.8354428 42.9573768 51.6935052 44.9702499 51.58879 48.338566 53.6017963 50.4805036 53.6772391 50.5607364 53.75521 50.6387073 53.8354428 50.7141502 52.1521497 51.623988 51.100474 53.3808612 51.0935551 55.2943414L51.0935551 62.8229235C51.0935551 63.4107655 51.5701622 63.8873726 52.1580042 63.8873726L62.8024948 63.8873726C63.3903368 63.8873726 63.8669439 63.4107655 63.8669439 62.8229235L63.8669439 55.2943414C63.8598919 53.3808612 62.8082162 51.623988 61.1249231 50.7141502zM57.4801164 43.6628404C59.2437755 43.6628404 60.6734636 45.0925285 60.6734636 46.8561876 60.6734636 48.6198466 59.2437755 50.0495348 57.4801164 50.0495348 55.7164574 50.0495348 54.2867692 48.6198466 54.2867692 46.8561876 54.288632 45.0933269 55.7172557 43.6647032 57.4801164 43.6628404zM61.7379127 61.7584745L53.2223202 61.7584745 53.2223202 55.2943414C53.224183 53.5741917 54.618079 52.1802957 56.3382287 52.1784329L58.6220042 52.1784329C60.3421538 52.1802957 61.7360499 53.5741917 61.7379127 55.2943414L61.7379127 61.7584745z"/>
    <path d="M62.8024948,0 L1.06444906,0 C0.476607069,0 0,0.476607069 0,1.06444906 L0,35.1268191 C0,35.7146611 0.476607069,36.1912682 1.06444906,36.1912682 L12.0061871,36.1912682 L13.8923909,41.8502786 C14.0785364,42.4080499 14.6815468,42.709289 15.239185,42.5231435 C15.55679,42.4170977 15.8061372,42.1678836 15.9120499,41.8502786 L17.7983867,36.1912682 L29.0375052,36.1912682 L30.9237089,41.8502786 C31.1098545,42.4080499 31.7128649,42.709289 32.2705031,42.5231435 C32.5881081,42.4170977 32.8374553,42.1678836 32.943368,41.8502786 L34.8295717,36.1912682 L46.0686902,36.1912682 L47.954894,41.8502786 C48.1410395,42.4080499 48.7440499,42.709289 49.3016881,42.5231435 C49.6192931,42.4170977 49.8686403,42.1678836 49.974553,41.8502786 L51.8607568,36.1912682 L62.8024948,36.1912682 C63.3903368,36.1912682 63.8669439,35.7146611 63.8669439,35.1268191 L63.8669439,1.06444906 C63.8669439,0.476607069 63.3903368,0 62.8024948,0 Z M61.7380457,34.0623701 L51.0935551,34.0623701 C50.6354428,34.0623701 50.2286902,34.3553597 50.083659,34.7900541 L48.964657,38.1475925 L47.8456549,34.7900541 C47.7006237,34.3553597 47.2938711,34.0623701 46.8357588,34.0623701 L34.0623701,34.0623701 C33.6042578,34.0623701 33.1975052,34.3553597 33.052474,34.7900541 L31.9334719,38.1475925 L30.8144699,34.7900541 C30.6694387,34.3553597 30.2626861,34.0623701 29.8045738,34.0623701 L17.031185,34.0623701 C16.5730728,34.0623701 16.1663202,34.3553597 16.021289,34.7900541 L14.9022869,38.1475925 L13.7832848,34.7900541 C13.6382536,34.3553597 13.231501,34.0623701 12.7733888,34.0623701 L2.12889813,34.0623701 L2.12889813,2.12889813 L61.7380457,2.12889813 L61.7380457,34.0623701 Z"/>
    <path d="M8.81344641,27.9739568 C8.36913626,28.3589116 7.6968842,28.3107946 7.31192941,27.8664844 C6.92697463,27.4221743 6.97509166,26.7499222 7.41940182,26.3649674 L17.1324995,17.9494419 C17.5590627,17.5798633 18.1999326,17.6074672 18.5931375,18.0123553 L23.4710685,23.0352228 L34.6847861,13.0431164 C35.1451496,12.6329046 35.8566547,12.6984429 36.2343364,13.1858491 L42.0789736,20.7284747 L52.9407148,11.689097 C53.3925829,11.3130425 54.0637467,11.3745016 54.4398011,11.8263697 C54.8158556,12.2782378 54.7543965,12.9494016 54.3025284,13.325456 L42.5935887,23.0698908 C42.130546,23.455245 41.4402651,23.3798871 41.0712769,22.9037001 L35.2498621,15.3910434 L24.1260247,25.3030609 C23.7003699,25.6823452 23.0514565,25.6589152 22.6542637,25.2499208 L17.7665068,20.2169353 L8.81344641,27.9739568 Z"/>
    <path d="M53.2224532,12.6403326 L48.4324324,12.6403326 C47.8445534,12.6403326 47.3679834,12.1637626 47.3679834,11.5758836 C47.3679834,10.9880046 47.8445534,10.5114345 48.4324324,10.5114345 L55.3513514,10.5114345 L55.3513514,17.4303534 C55.3513514,18.0182324 54.8747813,18.4948025 54.2869023,18.4948025 C53.6990233,18.4948025 53.2224532,18.0182324 53.2224532,17.4303534 L53.2224532,12.6403326 Z"/>
  </g>
</svg>
