<svg xmlns="http://www.w3.org/2000/svg" width="64" height="64" viewBox="0 0 64 64">
  <g fill="#3788E8" transform="translate(4 3)">
    <path d="M34.2250055 7.9281106L34.2250055 16.5263806 21.5752183 16.5263806 21.5752183 7.9281106 20 7.9281106 28 0 36 7.9281106 34.2250055 7.9281106zM29.4873404 8.4331915L29.4873404 5.97351062 26.6762766 5.97351062 26.6762766 8.4331915 24.2165957 8.4331915 24.2165957 11.2442553 26.6762766 11.2442553 26.6762766 13.7039361 29.4873404 13.7039361 29.4873404 11.2442553 31.9470212 11.2442553 31.9470212 8.4331915 29.4873404 8.4331915zM14.2250055 45.9281106L14.2250055 54.5263806 1.57521832 54.5263806 1.57521832 45.9281106 0 45.9281106 8 38 16 45.9281106 14.2250055 45.9281106zM9.4873404 46.4331915L9.4873404 43.9735106 6.6762766 43.9735106 6.6762766 46.4331915 4.21659573 46.4331915 4.21659573 49.2442553 6.6762766 49.2442553 6.6762766 51.7039361 9.4873404 51.7039361 9.4873404 49.2442553 11.9470212 49.2442553 11.9470212 46.4331915 9.4873404 46.4331915zM54.2250055 45.9281106L54.2250055 54.5263806 41.5752183 54.5263806 41.5752183 45.9281106 40 45.9281106 48 38 56 45.9281106 54.2250055 45.9281106zM49.4873404 46.4331915L49.4873404 43.9735106 46.6762766 43.9735106 46.6762766 46.4331915 44.2165957 46.4331915 44.2165957 49.2442553 46.6762766 49.2442553 46.6762766 51.7039361 49.4873404 51.7039361 49.4873404 49.2442553 51.9470212 49.2442553 51.9470212 46.4331915 49.4873404 46.4331915z"/>
    <path d="M6.23572275,33.857668 C6.22350615,34.415567 5.76133609,34.8579299 5.2034371,34.8457133 C4.64553812,34.8334967 4.20317517,34.3713266 4.2153918,33.8134276 C4.2985097,30.0176687 5.06537772,26.5659887 6.51903085,23.4671537 C7.97062015,20.3727186 10.1670833,17.5020573 13.1000794,14.8559261 C13.5144095,14.48212 14.1533202,14.5149712 14.5271264,14.9293014 C14.9009325,15.3436315 14.8680813,15.9825423 14.4537512,16.3563484 C11.7133283,18.8287412 9.68104225,21.4848316 8.34855235,24.3253762 C7.01812625,27.1615209 6.31283805,30.3360295 6.23572275,33.857668 Z M49.7476725,33.857668 C49.6705571,30.3360295 48.965269,27.1615209 47.6348429,24.3253762 C46.3023529,21.4848316 44.270067,18.8287412 41.5296441,16.3563484 C41.1153139,15.9825423 41.0824627,15.3436315 41.4562689,14.9293014 C41.830075,14.5149712 42.4689857,14.48212 42.8833159,14.8559261 C45.816312,17.5020573 48.0127751,20.3727186 49.4643643,23.4671537 C50.9180175,26.5659887 51.6848855,30.0176687 51.7680034,33.8134276 C51.78022,34.3713266 51.3378571,34.8334967 50.7799581,34.8457133 C50.2220591,34.8579299 49.7598891,34.415567 49.7476725,33.857668 Z M20.0439912,55.5603535 C19.5180976,55.3737083 19.2430824,54.7960814 19.4297276,54.2701878 C19.6163728,53.7442942 20.1939997,53.469279 20.7198933,53.6559243 C23.2316414,54.5473703 25.6518213,54.990948 27.9833961,54.990948 C30.3149708,54.990948 32.7351507,54.5473703 35.2468988,53.6559243 C35.7727924,53.469279 36.3504193,53.7442942 36.5370645,54.2701878 C36.7237097,54.7960814 36.4486946,55.3737083 35.922801,55.5603535 C33.2004922,56.5265297 30.5530361,57.0117632 27.9833961,57.0117632 C25.413756,57.0117632 22.7662999,56.5265297 20.0439912,55.5603535 Z" transform="matrix(-1 0 0 1 55.983 0)"/>
  </g>
</svg>
