<svg xmlns="http://www.w3.org/2000/svg" width="64" height="64" viewBox="0 0 64 64">
  <g fill="#3788E8" transform="translate(2 2)">
    <path d="M53.9355137,44.1861714 L49.4529943,50.9359234 C49.2700343,51.2171631 48.9041144,51.4984028 48.5381944,51.4984028 C48.1722745,51.5921493 47.8063545,51.4984028 47.5319146,51.3109096 L40.9453554,46.7173284 C40.3049955,46.2485956 40.1220355,45.4048766 40.5794355,44.7486507 C41.0368354,44.0924248 41.8601553,43.9049317 42.5005152,44.3736645 L46.5256347,47.1860612 C42.1345953,10.062425 8.83587963,10.7186509 7.37219982,10.8123975 C6.54887993,10.906144 6,10.2499181 6,9.40619914 C6,8.65622669 6.54887993,8.0000008 7.28071983,8.0000008 C7.28071983,8.0000008 7.37219982,8.0000008 7.5551598,8.0000008 C10.8484394,8.0000008 44.513075,8.93746636 49.1785544,46.4360887 L51.739994,42.5924799 C52.014434,42.2174937 52.4718339,41.936254 52.8377539,41.936254 C53.1121938,41.936254 53.3866338,42.0300006 53.5695938,42.2174937 C54.2099537,42.6862265 54.3929137,43.6236921 53.9355137,44.1861714 Z" transform="matrix(1 0 0 -1 0 59.535)"/>
    <path d="M2.5,57.3592543 L59,57.3592543 C59.5522847,57.3592543 60,57.8069695 60,58.3592543 C60,58.911539 59.5522847,59.3592543 59,59.3592543 L0.5,59.3592543 L0.5,1 C0.5,0.44771525 0.94771525,0 1.5,0 C2.05228475,0 2.5,0.44771525 2.5,1 L2.5,57.3592543 Z"/>
  </g>
</svg>
