<svg xmlns="http://www.w3.org/2000/svg" width="64" height="64" viewBox="0 0 64 64">
  <path fill="#3788E8" fill-rule="evenodd" d="M63.6013646,58.0004873 L22.1437622,16.5428849 C20.5823587,14.9819688 18.0419104,14.9819688 16.4805068,16.5428849 C14.9195907,18.1042886 14.9195907,20.6447369 16.4805068,22.2061404 L53.1934698,58.9191034 C53.5589669,59.2846004 54.1515595,59.2846004 54.5165692,58.9191034 C54.8820662,58.5536062 54.8820662,57.9610136 54.5165692,57.5960039 L26.1174464,29.1963938 L29.1340156,26.1798245 L61.6164717,58.6617934 L58.5994153,61.6788499 L56.9707602,60.0506823 C56.6057505,59.6851851 56.0131579,59.6851851 55.6476608,60.0506823 C55.2826511,60.4161794 55.2826511,61.008772 55.6481482,61.3737817 L57.9381091,63.6637428 C58.1208577,63.8460039 58.3601365,63.9376218 58.5999026,63.9376218 C58.8391812,63.9376218 59.07846,63.8460039 59.2612086,63.6632553 L63.6013646,59.3235867 C63.9663743,58.9580897 63.9663743,58.3654971 63.6013646,58.0004873 Z M24.794347,27.8732943 L17.8040936,20.8830409 C16.9722223,20.0511696 16.9722223,18.6978558 17.8040936,17.8664718 C18.6354776,17.0346004 19.9887914,17.0346004 20.8206628,17.8664718 L27.8109162,24.8567252 L24.794347,27.8732943 Z M20.2105263,8.90935666 C19.6934698,8.90935666 19.2748538,8.49025347 19.2748538,7.97368415 L19.2748538,0.998050682 C19.2748538,0.481481481 19.6939571,0.0623781676 20.2105263,0.0623781676 C20.7270955,0.0623781676 21.1461988,0.481481481 21.1461988,0.998050682 L21.1461988,7.97368415 C21.1461988,8.49025347 20.7270955,8.90935666 20.2105263,8.90935666 Z M20.2105263,31.6364523 C20.7270955,31.6364523 21.1461988,32.0550682 21.1461988,32.5721248 L21.1461988,39.5477583 C21.1461988,40.0643275 20.7270955,40.4834308 20.2105263,40.4834308 C19.6939571,40.4834308 19.2748538,40.0643275 19.2748538,39.5477583 L19.2748538,32.5721248 C19.2748538,32.0550682 19.6939571,31.6364523 20.2105263,31.6364523 Z M7.24269012,5.98196884 L12.1754386,10.91423 C12.5404483,11.279727 12.5404483,11.8723196 12.1754386,12.2378168 C11.99269,12.4205653 11.7529239,12.5116958 11.5136452,12.5116958 C11.2743665,12.5116958 11.0346004,12.4205653 10.8518519,12.2378168 L5.91959067,7.30506829 C5.55409354,6.93957115 5.55409354,6.34746586 5.91959067,5.98196884 C6.28508769,5.6164717 6.87719298,5.6164717 7.24269012,5.98196884 Z M8.8469785,20.2729045 C8.8469785,20.7894737 8.42787531,21.208577 7.91130598,21.208577 L0.935672515,21.208577 C0.419103314,21.208577 4.26325641e-14,20.7894737 4.26325641e-14,20.2729045 C4.26325641e-14,19.7563353 0.419103314,19.337232 0.935672515,19.337232 L7.91130598,19.337232 C8.42787531,19.337232 8.8469785,19.7563353 8.8469785,20.2729045 Z M31.5740741,20.2729045 C31.5740741,19.7563353 31.99269,19.337232 32.5097467,19.337232 L39.4853801,19.337232 C40.0019493,19.337232 40.4210526,19.7563353 40.4210526,20.2729045 C40.4210526,20.7894737 40.0019493,21.208577 39.4853801,21.208577 L32.5097467,21.208577 C31.99269,21.208577 31.5740741,20.7894737 31.5740741,20.2729045 Z M10.8518519,28.3079922 C11.2173489,27.9424951 11.8099415,27.9424951 12.1754386,28.3079922 C12.5404483,28.6734893 12.5404483,29.2655945 12.1754386,29.6310916 L7.24269012,34.5638401 C7.05994155,34.7465887 6.82066277,34.8377193 6.58138398,34.8377193 C6.3416179,34.8377193 6.10233912,34.7465887 5.91959067,34.5638401 C5.55409354,34.1983431 5.55409354,33.6057505 5.91959067,33.2407407 L10.8518519,28.3079922 Z M28.9074075,12.5116958 C28.6676413,12.5116958 28.4283626,12.4205653 28.245614,12.2378168 C27.8801169,11.8723196 27.8801169,11.279727 28.245614,10.91423 L33.1783625,5.98196884 C33.5433724,5.6164717 34.1359649,5.6164717 34.501462,5.98196884 C34.8669591,6.34746586 34.8669591,6.93957115 34.501462,7.30506829 L29.5687135,12.2378168 C29.3864522,12.4205653 29.1466861,12.5116958 28.9074075,12.5116958 Z" transform="matrix(-1 0 0 1 63.875 0)"/>
</svg>
