<svg xmlns="http://www.w3.org/2000/svg" width="64" height="64" viewBox="0 0 64 64">
  <path fill="#3788E8" d="M41.7127976,27.3058036 C40.3185454,25.7334914 38.4007162,24.7373047 36.3336123,24.4669829 C36.3165458,23.3283111 36.28976,22.2912017 36.2589285,21.3943453 C36.1941964,19.530134 34.6711309,18.0699406 32.7909226,18.0699406 L13.2380952,18.0699406 L13.2380952,18.029762 C13.2380952,17.3984376 12.7261905,16.8869048 12.0952381,16.8869048 C11.4642857,16.8869048 10.952381,17.3984376 10.952381,18.029762 L10.952381,18.0699406 L3.8705357,18.0699406 C1.98958331,18.0699406 0.46577379,19.5305061 0.402529752,21.3947173 C0.102678552,30.0904018 0.125,51.3880209 6.78720236,61.326637 C7.79464282,62.8288691 9.50148808,63.7258185 11.3519345,63.7258185 L25.3095238,63.7258185 C27.1607143,63.7258185 28.8668155,62.8288691 29.8735119,61.326637 C31.0237166,59.6107237 31.9719587,57.5505488 32.7588356,55.2801339 L33.5535714,55.2801339 C37.9404762,55.2801339 41.6421131,52.0189733 42.1629464,47.6949405 L43.8139881,34.0182292 C44.1071429,31.5885416 43.3407738,29.1421131 41.7127976,27.3058036 Z M27.9747024,60.0539435 C27.3928571,60.921875 26.3965774,61.4401042 25.3095238,61.4401042 L11.3519346,61.4401042 C10.264881,61.4401042 9.26785714,60.921875 8.68601196,60.0535714 C2.21800602,50.405506 2.45907741,28.0848214 2.68675604,21.4732142 C2.70833341,20.8463541 3.2284227,20.3556547 3.87053577,20.3556547 L10.952381,20.3556547 L10.952381,29.9654018 L8.20386903,29.9654018 C7.60639878,29.9654018 7.10937501,30.4259672 7.06398804,31.0219494 L6.2708333,41.515625 C6.24702377,41.8329613 6.35639878,42.1458333 6.57291665,42.3790923 C6.78869044,42.6123512 7.09300594,42.7447917 7.41071429,42.7447917 L16.7790178,42.7447917 C17.0967262,42.7447917 17.4010416,42.6123512 17.6168155,42.3790923 C17.8333333,42.1458334 17.9427083,41.8329613 17.9188988,41.515997 L17.1264881,31.0223214 C17.0811012,30.4259673 16.5840773,29.9654018 15.9866071,29.9654018 L13.2380952,29.9654018 L13.2380952,20.3556548 L32.7909226,20.3556548 C33.4330357,20.3556548 33.953125,20.8467262 33.9747023,21.4732143 C34.2016369,28.0855655 34.4404762,50.4084821 27.9747024,60.0539435 Z M14.9270834,32.251116 L15.546875,40.4590773 L8.64285714,40.4590773 L9.26339284,32.251116 L14.9270834,32.251116 Z M41.5446429,33.7444197 L39.8936012,47.421131 C39.5104167,50.5985864 36.7849703,52.9944197 33.5535714,52.9944197 L33.4782366,52.9944197 C35.8558408,44.6398344 36.3567243,34.1681083 36.3513765,26.7814825 C37.7548828,27.0359003 39.0464565,27.7440476 40.0022321,28.8221726 C41.1971726,30.1696428 41.7596726,31.9639137 41.5446429,33.7444197 Z M17.359375,12.0736607 C17.2715774,11.9319196 15.2321429,8.57142857 17.4241072,5.71986606 C18.6584822,4.11421135 17.3779762,2.04873516 17.3645834,2.02827383 C17.0267858,1.4947917 17.186012,0.788690514 17.7194941,0.451264914 C18.2522322,0.114583314 18.9590774,0.272321448 19.296131,0.805803581 C19.3846726,0.945312457 21.4330357,4.25558034 19.2366072,7.1127232 C18.0141369,8.70312495 19.2514882,10.7860862 19.3043155,10.8738839 C19.6302083,11.4118303 19.4620536,12.1142113 18.9263393,12.4430803 C18.7388393,12.5576637 18.5319941,12.6123512 18.328125,12.6123512 C17.9464286,12.6123512 17.5751488,12.421875 17.359375,12.0736607 Z" transform="translate(10)"/>
</svg>
