<svg xmlns="http://www.w3.org/2000/svg" width="64" height="64" viewBox="0 0 64 64">
  <path fill="#3788E8" d="M56.1828791,25.6538462 L56.0758022,25.6538462 L56.0758022,12.5509451 C56.0758022,11.7485055 55.4250549,11.0983956 54.6232527,11.0983956 L47.313978,11.0983956 L11.2411648,11.0983956 C11.1117802,11.0983956 10.9811209,11.0932967 10.8498242,11.0837363 C10.8077582,11.0805495 10.7650549,11.0748132 10.722989,11.0703516 C10.6324835,11.0620659 10.5426154,11.0531429 10.4521099,11.0397582 C10.4004835,11.0321099 10.3488571,11.0219121 10.2978681,11.012989 C10.2156484,10.998967 10.1334286,10.9843077 10.0512088,10.9651868 C9.9963956,10.9530769 9.94158242,10.9390549 9.88676923,10.925033 C9.80773626,10.9052747 9.7287033,10.8836044 9.64967033,10.8593846 C9.59421978,10.8428132 9.53876923,10.8243297 9.48395604,10.8052088 C9.40556044,10.7784396 9.32843956,10.7503956 9.25131868,10.7198022 C9.19650549,10.6981319 9.14232967,10.6758242 9.08879121,10.6528791 C9.01167033,10.6190989 8.93582418,10.5827692 8.85934066,10.5451648 C8.80771429,10.519033 8.75545055,10.4929011 8.70382418,10.4654945 C8.6267033,10.4240659 8.55085714,10.3781758 8.47628571,10.3316484 C8.42848352,10.3023297 8.37940659,10.2736484 8.33224176,10.2417802 C8.25257143,10.1888791 8.17481319,10.1302418 8.09769231,10.0716044 C8.05817582,10.041011 8.01674725,10.012967 7.97786813,9.9810989 C7.88098901,9.90206593 7.7872967,9.8172967 7.69615385,9.72934066 C7.67894505,9.71276923 7.66046154,9.69874725 7.64325275,9.68153846 C7.5349011,9.57446154 7.43164835,9.4590989 7.33158242,9.33863736 C7.30736264,9.30868132 7.28505495,9.27553846 7.26147253,9.24494505 C7.18881319,9.15189011 7.11742857,9.05756044 7.05050549,8.95621978 C7.01863736,8.90778022 6.98931868,8.85551648 6.95872527,8.80516484 C6.90391209,8.71593407 6.85037363,8.62542857 6.80002198,8.52982418 C6.76879121,8.47054945 6.74074725,8.40808791 6.71142857,8.3469011 C6.66681319,8.25320879 6.62347253,8.15824176 6.58395604,8.05945055 C6.55654945,7.99125275 6.53105495,7.92050549 6.50556044,7.84975824 C6.46986813,7.74969231 6.43608791,7.64771429 6.40549451,7.54254945 C6.38254945,7.46606593 6.36151648,7.38830769 6.34175824,7.30927473 C6.32964835,7.26147253 6.32072527,7.21112088 6.30989011,7.16204396 C6.85101099,6.98167033 7.42973626,6.88734066 8.02184615,6.88734066 L8.97534066,6.88734066 L8.62606593,8.7203956 C8.47564835,9.50817582 8.99318681,10.2685495 9.78096703,10.418967 C10.5674725,10.5712967 11.3297582,10.0524835 11.4795385,9.26406593 L12.1532308,5.72861538 C12.1532308,5.72797802 12.1532308,5.72734066 12.1538681,5.7267033 L12.542022,3.68969231 L29.1701758,6.85674725 C29.1733626,6.85738462 29.1759121,6.85738462 29.1790989,6.85802198 L47.0176044,10.2558022 C47.0214286,10.2564396 47.0258901,10.2570769 47.0303516,10.2583516 L49.6639341,10.759956 C49.7557143,10.7778022 49.8468571,10.7860879 49.9373626,10.7860879 C50.6212527,10.7860879 51.2299341,10.3010549 51.3625055,9.60505495 C51.5122857,8.81727473 50.9953846,8.05626374 50.2076044,7.90648352 L48.7684396,7.63241758 L48.7684396,5.43479121 C48.7684396,4.63235165 48.1176923,3.98224176 47.3158901,3.98224176 L29.6029451,3.98224176 L11.6573626,0.565340659 C10.8702198,0.414285714 10.1092088,0.931824176 9.95879121,1.72024176 L9.52793407,3.98351648 L8.02120879,3.98351648 C6.58969231,3.98351648 5.19578022,4.3449011 3.98989011,5.02942857 C3.98925275,5.02942857 3.98861538,5.03006593 3.98797802,5.0307033 C1.45318681,6.46923077 0,9.18057143 0,12.4687253 L0,42.9308352 C0,46.2196264 1.45382418,48.9303297 3.98925275,50.3694945 C5.19514286,51.054022 6.58969231,51.416044 8.02057143,51.416044 L54.6232527,51.416044 C55.4250549,51.416044 56.0758022,50.7652967 56.0758022,49.9634945 L56.0758022,36.6649231 L56.1828791,36.6649231 C56.9853187,36.6649231 57.6354286,36.0141758 57.6354286,35.2123736 L57.6354286,27.1063956 C57.6360659,26.3045934 56.9853187,25.6538462 56.1828791,25.6538462 Z M45.8607912,6.88861538 L45.8607912,7.08046154 L44.8531209,6.88861538 L45.8607912,6.88861538 Z M54.730967,28.5589451 L54.730967,33.7598242 L54.6232527,33.7598242 L44.4745275,33.7598242 L44.4745275,28.5589451 L54.6232527,28.5589451 L54.730967,28.5589451 Z M53.1707033,48.5109451 L8.02057143,48.5109451 C7.09065934,48.5109451 6.19197802,48.2802198 5.42204396,47.842989 C3.79868132,46.922 2.90446154,45.1769011 2.90446154,42.9308352 L2.90446154,12.4687253 C2.90446154,11.1168791 3.2276044,9.94668132 3.83947253,9.02887912 C3.84074725,9.03142857 3.84265934,9.03461538 3.84393407,9.0378022 C3.85540659,9.06712088 3.86942857,9.09389011 3.8809011,9.12257143 C3.96503297,9.33162637 4.05617582,9.53430769 4.15432967,9.72934066 C4.1912967,9.80327473 4.23145055,9.87402198 4.27096703,9.94604396 C4.35,10.092 4.43221978,10.2354066 4.5189011,10.3737143 C4.56542857,10.447011 4.61259341,10.5196703 4.66103297,10.5904176 C4.75153846,10.7242637 4.84586813,10.853011 4.94210989,10.9779341 C4.98991209,11.0397582 5.03643956,11.1022198 5.08551648,11.1621319 C5.21043956,11.3138242 5.34046154,11.4585055 5.47430769,11.5974505 C5.49852747,11.6229451 5.52147253,11.6503516 5.54569231,11.6752088 C5.70630769,11.8370989 5.87393407,11.9887912 6.04538462,12.1334725 C6.09446154,12.1742637 6.14545055,12.2118681 6.19452747,12.252022 C6.32072527,12.3527253 6.44883516,12.4502418 6.57949451,12.5426593 C6.64386813,12.5872747 6.70824176,12.6293407 6.77261538,12.672044 C6.8969011,12.7536264 7.0230989,12.8313846 7.15057143,12.9053187 C7.21621978,12.9435604 7.28186813,12.9818022 7.34815385,13.0174945 C7.4921978,13.0952527 7.63751648,13.1666374 7.78474725,13.2348352 C7.8350989,13.2584176 7.88417582,13.2839121 7.93516484,13.3062198 C8.13402198,13.3935385 8.33415385,13.4725714 8.53683516,13.5433187 C8.57762637,13.5573407 8.61905495,13.5688132 8.66048352,13.5821978 C8.82301099,13.6357363 8.98617582,13.6854505 9.15125275,13.7281538 C9.22136264,13.7466374 9.29147253,13.7619341 9.36158242,13.7791429 C9.50052747,13.8116484 9.64010989,13.8416044 9.77905495,13.8670989 C9.85362637,13.8804835 9.92692308,13.8932308 10.0014945,13.9047033 C10.1449011,13.927011 10.2876703,13.9442198 10.4310769,13.9582418 C10.4960879,13.9652527 10.5610989,13.9729011 10.6261099,13.978 C10.831978,13.9939341 11.0372088,14.0034945 11.2411648,14.0034945 L47.313978,14.0034945 L53.1700659,14.0034945 L53.1700659,25.6544835 L43.021978,25.6544835 C42.2201758,25.6544835 41.5700659,26.3052308 41.5700659,27.107033 L41.5700659,35.213011 C41.5700659,36.0148132 42.2208132,36.6655604 43.021978,36.6655604 L53.1707033,36.6655604 L53.1707033,48.5109451 Z" transform="translate(3 6)"/>
</svg>
