<svg xmlns="http://www.w3.org/2000/svg" width="64" height="64" viewBox="0 0 64 64">
  <path fill="#3788E8" d="M39.7319483,55.6890211 C38.2291952,53.6123697 37.3448276,51.0686454 37.3448276,48.3207547 C37.3448276,41.3182009 43.0879336,35.6415094 50.1724138,35.6415094 C57.256894,35.6415094 63,41.3182009 63,48.3207547 C63,55.3233085 57.256894,61 50.1724138,61 C46.6198533,61 43.4045933,59.5725455 41.0816734,57.2662576 C40.4631054,57.562556 39.833402,57.8361243 39.1937188,58.0862743 C38.6793637,58.2874143 38.0993403,58.0335033 37.8982003,57.5191483 C37.6970603,57.0047932 37.9509713,56.4247698 38.4653263,56.2236298 C38.8924456,56.0566036 39.3147857,55.8783219 39.7319483,55.6890211 Z M29,60 C28.4477153,60 28,59.5522847 28,59 C28,58.4477153 28.4477153,58 29,58 C30.2956454,58 31.5790697,57.9053096 32.8434579,57.7180258 C33.389782,57.6371032 33.8982659,58.0143856 33.9791885,58.5607097 C34.0601111,59.1070337 33.6828287,59.6155176 33.1365047,59.6964402 C31.7751746,59.8980832 30.3938049,60 29,60 Z M56.9021307,34.3571462 C56.8562337,34.9075205 56.3728602,35.3164802 55.8224859,35.2705831 C55.2721116,35.2246861 54.8631519,34.7413127 54.9090489,34.1909384 C54.9695666,33.4652398 55,32.7345243 55,32 C55,31.4681591 54.9840447,30.9382915 54.9522624,30.4108512 C54.9190432,29.8595664 55.3390184,29.3857323 55.8903032,29.3525132 C56.441588,29.319294 56.9154221,29.7392692 56.9486412,30.290554 C56.9828367,30.8580411 57,31.4280259 57,32 C57,32.7900154 56.9672572,33.5761814 56.9021307,34.3571462 Z M55.8828479,24.1446864 C56.0375204,24.6748702 55.7331083,25.2300559 55.2029245,25.3847284 C54.6727408,25.539401 54.117555,25.2349889 53.9628825,24.7048051 C53.6023775,23.4690722 53.1505305,22.2643987 52.6117206,21.0993167 C52.3798982,20.5980414 52.5983329,20.0037484 53.0996082,19.7719261 C53.6008834,19.5401037 54.1951764,19.7585384 54.4269987,20.2598137 C55.0075207,21.5150908 55.4943905,22.813139 55.8828479,24.1446864 Z M51.1784944,14.9064855 C51.5159399,15.3436914 51.4350681,15.9716704 50.9978622,16.3091159 C50.5606563,16.6465614 49.9326772,16.5656896 49.5952318,16.1284837 C48.8097273,15.1107572 47.9498114,14.1519973 47.0231786,13.2605579 C46.6251693,12.8776649 46.6129152,12.2446185 46.9958081,11.8466092 C47.3787011,11.4485999 48.0117475,11.4363457 48.4097568,11.8192387 C49.4072224,12.7788207 50.3328828,13.8108822 51.1784944,14.9064855 Z M43.4938123,8.03852821 C43.9661102,8.32480288 44.1169117,8.9397474 43.8306371,9.41204525 C43.5443624,9.8843431 42.9294179,10.0351447 42.45712,9.74887002 C41.3580581,9.08269383 40.2108206,8.49875535 39.0242384,8.00249357 C38.5147199,7.78939875 38.2744211,7.20360496 38.4875159,6.69408651 C38.7006107,6.18456807 39.2864045,5.94426925 39.795923,6.15736407 C41.0742485,6.69199544 42.3100517,7.32101342 43.4938123,8.03852821 Z M33.7192644,4.39617723 C34.2637575,4.48862057 34.6302162,5.00495953 34.5377728,5.54945258 C34.4453295,6.09394562 33.9289905,6.46040431 33.3844975,6.36796097 C32.1241038,6.15397292 30.8432825,6.03246715 29.549002,6.00567687 C28.9968355,5.99424758 28.5584814,5.53736295 28.5699107,4.98519647 C28.5813399,4.43303 29.0382246,3.99467589 29.5903911,4.00610518 C30.9831128,4.0349331 32.3619911,4.16574109 33.7192644,4.39617723 Z M23.530523,4.53412582 C24.0722839,4.42682492 24.5984526,4.77902441 24.7057534,5.32078539 C24.8130543,5.86254638 24.4608549,6.38871499 23.9190939,6.49601589 C22.6541848,6.74654311 21.414115,7.0904606 20.2070157,7.52417648 C19.6872628,7.7109259 19.1145295,7.44097322 18.9277801,6.9212203 C18.7410307,6.40146738 19.0109833,5.82873407 19.5307363,5.64198465 C20.8314287,5.17464035 22.1676596,4.80405383 23.530523,4.53412582 Z M13.9219829,8.40252428 C14.3871041,8.1047311 15.0055683,8.24037721 15.3033615,8.70549835 C15.6011547,9.17061948 15.4655086,9.78908373 15.0003874,10.0868769 C13.9174982,10.7801953 12.8870642,11.5530791 11.9177902,12.3985109 C11.5015832,12.76154 10.8698875,12.7184308 10.5068583,12.3022238 C10.1438292,11.8860167 10.1869384,11.254321 10.6031455,10.8912919 C11.6466124,9.98114657 12.7559983,9.14904433 13.9219829,8.40252428 Z M6.40119789,15.465285 C6.72766209,15.0198194 7.35343481,14.9233497 7.79890038,15.2498139 C8.24436594,15.5762781 8.34083561,16.2020509 8.01437141,16.6475164 C7.25442458,17.6844759 6.57208663,18.7762694 5.9736189,19.914043 C5.71651553,20.4028337 5.11184895,20.5906533 4.6230583,20.33355 C4.13426765,20.0764466 3.946448,19.47178 4.20355137,18.9829894 C4.84811337,17.7575839 5.58291281,16.5818479 6.40119789,15.465285 Z M1.91732593,24.8656009 C2.05767236,24.3314462 2.60446362,24.0122014 3.1386184,24.1525479 C3.67277317,24.2928943 3.99201791,24.8396856 3.85167148,25.3738403 C3.5262874,26.6122435 3.29248026,27.8771966 3.1531195,29.1611078 C3.0935224,29.7101676 2.60010851,30.1069555 2.05104874,30.0473584 C1.50198897,29.9877613 1.10520108,29.4943474 1.16479818,28.9452876 C1.31488735,27.5625371 1.56675981,26.1998462 1.91732593,24.8656009 Z M1.16491888,35.0558241 C1.10529991,34.5067667 1.50206815,34.013337 2.05112554,33.9537181 C2.60018294,33.8940991 3.09361262,34.2908673 3.15323159,34.8399247 C3.29267661,36.1241354 3.52661273,37.3893761 3.85216803,38.6280492 C3.99255491,39.1621934 3.67335158,39.7090088 3.13920744,39.8493957 C2.60506329,39.9897826 2.05824785,39.6705792 1.91786097,39.1364351 C1.56711032,37.8018987 1.31509884,36.4388976 1.16491888,35.0558241 Z M4.17026842,44.9535373 C3.91442055,44.4640883 4.10379167,43.8599059 4.59324065,43.604058 C5.08268964,43.3482101 5.68687212,43.5375812 5.94271999,44.0270302 C6.53830604,45.1664143 7.21789355,46.2600069 7.97524348,47.2989504 C8.30057453,47.7452442 8.20251485,48.3707697 7.75622105,48.6961007 C7.30992725,49.0214318 6.68440172,48.9233721 6.35907067,48.4770783 C5.54357578,47.3583707 4.81173218,46.1806876 4.17026842,44.9535373 Z M10.5540545,53.0657892 C10.1386894,52.7017971 10.0970434,52.0700032 10.4610355,51.6546381 C10.8250276,51.239273 11.4568215,51.1976269 11.8721866,51.561619 C12.8394681,52.4092657 13.868074,53.1845164 14.949307,53.8803349 C15.4137324,54.179212 15.5479358,54.7979909 15.2490587,55.2624163 C14.9501816,55.7268416 14.3314027,55.8610451 13.8669774,55.562168 C12.7027836,54.8129608 11.5953721,53.978315 10.5540545,53.0657892 Z M19.5098195,58.3504904 C18.9902161,58.1633254 18.7207215,57.5903764 18.9078865,57.070773 C19.0950516,56.5511696 19.6680006,56.281675 20.187604,56.46884 C21.3939887,56.9033888 22.6333828,57.248217 23.8976584,57.4997292 C24.4393285,57.6074878 24.7910833,58.1339539 24.6833246,58.675624 C24.575566,59.2172941 24.0491,59.5690489 23.5074298,59.4612902 C22.1452458,59.1903004 20.8097419,58.8187322 19.5098195,58.3504904 Z M50.1724138,58.8867925 C56.0761473,58.8867925 60.862069,54.1562162 60.862069,48.3207547 C60.862069,42.4852932 56.0761473,37.754717 50.1724138,37.754717 C44.2686803,37.754717 39.4827586,42.4852932 39.4827586,48.3207547 C39.4827586,54.1562162 44.2686803,58.8867925 50.1724138,58.8867925 Z M37.1258676,36.8431641 C37.1258676,38.3403418 36.5717196,39.6229656 35.463407,40.691074 C34.3550944,41.7591824 32.757301,42.4210346 30.669979,42.6766503 L30.669979,45.7440232 L27.8992114,45.7440232 L27.8992114,42.758812 C26.5322925,42.685779 25.2300448,42.4484251 23.992429,42.0467433 C22.7548133,41.6450615 21.7573469,41.1520958 21,40.5678313 L22.5239222,37.2265858 C23.2258535,37.7378172 24.0478397,38.1668799 24.9899054,38.5137869 C25.9319711,38.8606939 26.90173,39.0797898 27.8992114,39.1710811 L27.8992114,34.5974089 C26.5877081,34.2870184 25.4794122,33.9401166 24.5742902,33.5566931 C23.6691683,33.1732696 22.9118327,32.6118364 22.3022608,31.8723767 C21.6926889,31.132917 21.3879075,30.15155 21.3879075,28.9282464 C21.3879075,27.4128105 21.9466733,26.1119287 23.0642219,25.025562 C24.1817704,23.9391953 25.7934175,23.2773432 27.8992114,23.0399857 L27.8992114,20 L30.669979,20 L30.669979,22.9852112 C32.9420198,23.1677938 34.8168871,23.7246625 36.2946373,24.655834 L34.9092535,28.0244668 C33.5238627,27.2393615 32.1107854,26.7646537 30.669979,26.6003294 L30.669979,31.2561634 C31.9630104,31.5482956 33.0574526,31.8815039 33.9533386,32.2557983 C34.8492246,32.6300927 35.6019423,33.1869614 36.2115142,33.9264211 C36.8210862,34.6658808 37.1258676,35.6381187 37.1258676,36.8431641 Z M25.8488433,28.7091483 C25.8488433,29.1656049 26.0243235,29.5398937 26.3752892,29.8320259 C26.7262548,30.1241581 27.2342238,30.370641 27.8992114,30.5714819 L27.8992114,26.6824911 C27.1972801,26.8468155 26.6800753,27.1069919 26.3475815,27.463028 C26.0150877,27.8190642 25.8488433,28.2344334 25.8488433,28.7091483 Z M30.669979,39.0615321 C31.3349665,38.915466 31.8336997,38.6781121 32.1661935,38.3494634 C32.4986873,38.0208146 32.6649317,37.6282678 32.6649317,37.1718112 C32.6649317,36.7153547 32.4940694,36.3410659 32.1523397,36.0489336 C31.81061,35.7568014 31.3164947,35.5011896 30.669979,35.2820904 L30.669979,39.0615321 Z M55.0741434,50.5403048 C55.0741434,51.4420051 54.7403985,52.2144869 54.0728986,52.8577731 C53.4053988,53.5010593 52.4431009,53.8996709 51.1859762,54.0536197 L51.1859762,55.9009966 L49.5172348,55.9009966 L49.5172348,54.103103 C48.693985,54.0591176 47.9096844,53.9161673 47.1643096,53.6742477 C46.4189347,53.4323281 45.8181939,53.1354312 45.362069,52.7835481 L46.2798767,50.7712269 C46.7026266,51.0791246 47.1976816,51.3375348 47.7650565,51.5464654 C48.3324313,51.755396 48.916485,51.8873501 49.5172348,51.9423319 L49.5172348,49.187761 C48.72736,49.0008231 48.0598701,48.7918957 47.5147453,48.5609724 C46.9696204,48.3300492 46.5135023,47.9919166 46.1463774,47.5465646 C45.7792525,47.1012126 45.5956927,46.5101678 45.5956927,45.7734127 C45.5956927,44.860716 45.9322189,44.0772381 46.6052812,43.4229555 C47.2783436,42.7686729 48.2489851,42.3700613 49.5172348,42.2271089 L49.5172348,40.3962264 L51.1859762,40.3962264 L51.1859762,42.19412 C52.5543509,42.3040834 53.6835212,42.639467 54.573521,43.2002806 L53.7391504,45.2290963 C52.9047755,44.7562534 52.053726,44.4703527 51.1859762,44.3713856 L51.1859762,47.1754398 C51.964726,47.3513813 52.6238722,47.5520616 53.1634346,47.7774867 C53.702997,48.0029118 54.1563339,48.3382953 54.5234588,48.7836473 C54.8905837,49.2289993 55.0741434,49.8145459 55.0741434,50.5403048 Z M48.2823663,45.6414572 C48.2823663,45.9163658 48.3880522,46.1417875 48.5994271,46.3177291 C48.8108021,46.4936706 49.1167349,46.642119 49.5172348,46.7630789 L49.5172348,44.4208689 C49.0944849,44.519836 48.7829897,44.6765316 48.5827397,44.8909603 C48.3824897,45.1053891 48.2823663,45.3555522 48.2823663,45.6414572 Z M51.1859762,51.8763541 C51.5864761,51.7883834 51.8868465,51.645433 52.0870965,51.4474988 C52.2873464,51.2495646 52.3874699,51.0131467 52.3874699,50.738238 C52.3874699,50.4633294 52.2845652,50.2379077 52.0787528,50.0619661 C51.8729403,49.8860246 51.5753511,49.7320781 51.1859762,49.6001219 L51.1859762,51.8763541 Z"/>
</svg>
