<svg xmlns="http://www.w3.org/2000/svg" width="120" height="120" viewBox="0 0 120 120">
  <g fill="none" fill-rule="evenodd" transform="translate(1 1)">
    <circle cx="59" cy="59" r="59" stroke="#DDD"/>
    <ellipse cx="59.5" cy="74" fill="#6792DE" fill-opacity=".5" rx="44.5" ry="44"/>
    <path fill="#000" fill-rule="nonzero" d="M41.11,85.19 C42.4500067,85.19 43.6699945,85.4599973 44.77,86 C45.8700055,86.5400027 46.7399968,87.3049951 47.38,88.295 C48.0200032,89.285005 48.34,90.4299935 48.34,91.73 C48.34,93.130007 47.9900035,94.3599947 47.29,95.42 C46.5899965,96.4800053 45.6350061,97.2949972 44.425,97.865 C43.214994,98.4350028 41.8700074,98.72 40.39,98.72 C37.4499853,98.72 35.1500083,97.820009 33.49,96.02 C31.8299917,94.219991 31,91.6500167 31,88.31 C31,85.9299881 31.4499955,83.8900085 32.35,82.19 C33.2500045,80.4899915 34.5049919,79.2000044 36.115,78.32 C37.7250081,77.4399956 39.5899894,77 41.71,77 C42.8300056,77 43.9049948,77.1249988 44.935,77.375 C45.9650052,77.6250013 46.8399964,77.9799977 47.56,78.44 L45.76,82.01 C44.7199948,81.3099965 43.4100079,80.96 41.83,80.96 C40.0499911,80.96 38.6400052,81.4799948 37.6,82.52 C36.5599948,83.5600052 36.0000004,85.0699901 35.92,87.05 C37.1600062,85.8099938 38.8899889,85.19 41.11,85.19 Z M40.12,95.09 C41.1600052,95.09 42.0049968,94.8100028 42.655,94.25 C43.3050033,93.6899972 43.63,92.9300048 43.63,91.97 C43.63,91.0099952 43.3050033,90.2450028 42.655,89.675 C42.0049968,89.1049972 41.1400054,88.82 40.06,88.82 C38.9999947,88.82 38.1300034,89.114997 37.45,89.705 C36.7699966,90.295003 36.43,91.0499954 36.43,91.97 C36.43,92.8900046 36.7599967,93.6399971 37.42,94.22 C38.0800033,94.8000029 38.9799943,95.09 40.12,95.09 Z M69.34,93.95 L65.92,93.95 L65.92,98.36 L61.18,98.36 L61.18,93.95 L49.87,93.95 L49.87,90.68 L59.77,77.36 L64.87,77.36 L55.69,89.99 L61.33,89.99 L61.33,86.06 L65.92,86.06 L65.92,89.99 L69.34,89.99 L69.34,93.95 Z M73.63,91.92 C72.6033282,91.92 71.7666699,91.5700035 71.12,90.87 C70.4733301,90.1699965 70.15,89.2333392 70.15,88.06 C70.15,86.8866608 70.4733301,85.9500035 71.12,85.25 C71.7666699,84.5499965 72.6033282,84.2 73.63,84.2 C74.6566718,84.2 75.4899968,84.5499965 76.13,85.25 C76.7700032,85.9500035 77.09,86.8866608 77.09,88.06 C77.09,89.2333392 76.7700032,90.1699965 76.13,90.87 C75.4899968,91.5700035 74.6566718,91.92 73.63,91.92 Z M81.97,84.36 L84.35,84.36 L74.79,98.36 L72.41,98.36 L81.97,84.36 Z M73.63,90.28 C74.0833356,90.28 74.4399987,90.0933352 74.7,89.72 C74.9600013,89.3466648 75.09,88.793337 75.09,88.06 C75.09,87.326663 74.9600013,86.7733352 74.7,86.4 C74.4399987,86.0266648 74.0833356,85.84 73.63,85.84 C73.1899978,85.84 72.836668,86.0299981 72.57,86.41 C72.303332,86.7900019 72.17,87.34 72.17,88.06 C72.17,88.7800036 72.303332,89.3299981 72.57,89.71 C72.836668,90.0900019 73.1899978,90.28 73.63,90.28 Z M83.13,98.52 C82.46333,98.52 81.8666693,98.3633349 81.34,98.05 C80.8133307,97.7366651 80.4033348,97.2866696 80.11,96.7 C79.8166652,96.1133304 79.67,95.4333372 79.67,94.66 C79.67,93.8866628 79.8166652,93.2066696 80.11,92.62 C80.4033348,92.0333304 80.8133307,91.5833349 81.34,91.27 C81.8666693,90.9566651 82.46333,90.8 83.13,90.8 C84.1566718,90.8 84.9933301,91.1499965 85.64,91.85 C86.2866699,92.5500035 86.61,93.4866608 86.61,94.66 C86.61,95.8333392 86.2866699,96.7699965 85.64,97.47 C84.9933301,98.1700035 84.1566718,98.52 83.13,98.52 Z M83.13,96.88 C83.5833356,96.88 83.9399987,96.6900019 84.2,96.31 C84.4600013,95.9299981 84.59,95.3800036 84.59,94.66 C84.59,93.9399964 84.4600013,93.3900019 84.2,93.01 C83.9399987,92.6299981 83.5833356,92.44 83.13,92.44 C82.6899978,92.44 82.336668,92.6266648 82.07,93 C81.803332,93.3733352 81.67,93.926663 81.67,94.66 C81.67,95.393337 81.803332,95.9466648 82.07,96.32 C82.336668,96.6933352 82.6899978,96.88 83.13,96.88 Z"/>
  </g>
</svg>
