<?xml version="1.0" encoding="UTF-8"?>
<svg width="68px" height="69px" viewBox="0 0 68 69" version="1.1" xmlns="http://www.w3.org/2000/svg" xmlns:xlink="http://www.w3.org/1999/xlink">
    <!-- Generator: Sketch 54.1 (76490) - https://sketchapp.com -->
    <title>connectivity icon copy 3</title>
    <desc>Created with Sketch.</desc>
    <g id="Page-1" stroke="none" stroke-width="1" fill="none" fill-rule="evenodd">
        <g id="Artboard-Copy-13" transform="translate(-953.000000, -450.000000)">
            <g id="connectivity-icon-copy-3" transform="translate(954.468821, 452.612381)">
                <path d="M14.8123546,6.8712499 C14.8123546,10.6624278 11.7387186,13.7360638 7.94754067,13.7360638 C4.15636277,13.7360638 1.08272674,10.6624278 1.08272674,6.8712499 C1.08272674,3.08007201 4.15636277,0.00643597677 7.94754067,0.00643597677 C11.7387186,0.00643597677 14.8123546,3.08007201 14.8123546,6.8712499" id="Fill-1" stroke="#FFFFFF" stroke-width="4"></path>
                <path d="M35.4602374,39.0799004 C35.4602374,41.8863711 33.1849367,44.1616717 30.378466,44.1616717 C27.5719953,44.1616717 25.2966947,41.8863711 25.2966947,39.0799004 C25.2966947,36.2734297 27.5719953,33.9981291 30.378466,33.9981291 C33.1849367,33.9981291 35.4602374,36.2734297 35.4602374,39.0799004" id="Fill-3" stroke="#FFFFFF" stroke-width="4"></path>
                <path d="M16.6537604,44.8709554 C16.6537604,48.6124706 13.6209688,51.6452622 9.87945357,51.6452622 C6.13793834,51.6452622 3.10514673,48.6124706 3.10514673,44.8709554 C3.10514673,41.1294402 6.13793834,38.0966485 9.87945357,38.0966485 C13.6209688,38.0966485 16.6537604,41.1294402 16.6537604,44.8709554" id="Fill-5" stroke="#FFFFFF" stroke-width="4"></path>
                <path d="M63.8326245,35.5912245 C63.8326245,38.5748302 61.4144094,40.9930453 58.4308037,40.9930453 C55.447198,40.9930453 53.0289829,38.5748302 53.0289829,35.5912245 C53.0289829,32.6076188 55.447198,30.1894037 58.4308037,30.1894037 C61.4144094,30.1894037 63.8326245,32.6076188 63.8326245,35.5912245" id="Fill-7" stroke="#FFFFFF" stroke-width="4"></path>
                <path d="M55.9421412,56.8608939 C55.9421412,60.6520718 52.8685052,63.7257078 49.0773273,63.7257078 C45.2861494,63.7257078 42.2125134,60.6520718 42.2125134,56.8608939 C42.2125134,53.069716 45.2861494,49.9960799 49.0773273,49.9960799 C52.8685052,49.9960799 55.9421412,53.069716 55.9421412,56.8608939" id="Fill-9" stroke="#FFFFFF" stroke-width="4"></path>
                <path d="M51.4406239,15.2218586 C51.4406239,20.7537732 46.9566625,25.2377346 41.4247478,25.2377346 C35.8928332,25.2377346 31.4088718,20.7537732 31.4088718,15.2218586 C31.4088718,9.68994395 35.8928332,5.20598254 41.4247478,5.20598254 C46.9566625,5.20598254 51.4406239,9.68994395 51.4406239,15.2218586" id="Fill-11" stroke="#FFFFFF" stroke-width="4"></path>
                <path d="M0.629747043,38.5734797 L2.26154707,16.2347" id="Fill-13" fill="#FEFEFE"></path>
                <path d="M9.87945357,39.0799004 L7.7759058,13.7360638" id="Stroke-15" stroke="#FEFEFE" stroke-width="4"></path>
                <path d="M32.0840994,33.11539 L36.6981546,23.6622036" id="Fill-17" fill="#FEFEFE"></path>
                <path d="M32.4217132,33.9981291 L36.6981546,23.6622036" id="Stroke-19" stroke="#FEFEFE" stroke-width="4"></path>
                <path d="M9.35143686,10.3827275 L32.4217132,13.7588655" id="Fill-21" fill="#FEFEFE"></path>
                <path d="M15.2696714,8.38761872 L32.4217132,13.7588655" id="Stroke-23" stroke="#FEFEFE" stroke-width="4"></path>
                <path d="M7.7759058,41.8933488 L33.9972442,21.4114449" id="Fill-25" fill="#FEFEFE"></path>
                <path d="M14.7532577,40.7679694 L33.9972442,21.4114449" id="Stroke-27" stroke="#FEFEFE" stroke-width="4"></path>
                <path d="M35.4602374,39.0799004 L58.5305137,36.491528" id="Fill-29" fill="#FEFEFE"></path>
                <path d="M35.4602374,39.0799004 L53.1286929,36.491528" id="Stroke-31" stroke="#FEFEFE" stroke-width="4"></path>
                <path d="M9.126361,44.819335 L22.0682233,40.7679694" id="Fill-33" fill="#FEFEFE"></path>
                <path d="M15.2696714,43.5538886 L25.3975962,40.6279023" id="Stroke-35" stroke="#FEFEFE" stroke-width="4"></path>
                <path d="M57.967824,31.7649348 L48.2895617,21.4114449" id="Fill-37" fill="#FEFEFE"></path>
                <path d="M56.0546791,31.6523968 L48.2895617,21.4114449" id="Stroke-39" stroke="#FEFEFE" stroke-width="4"></path>
                <path d="M48.2895617,50.6713075 L43.4504306,24.562507" id="Fill-41" fill="#FEFEFE"></path>
                <path d="M48.2895617,50.6713075 L43.4504306,24.562507" id="Stroke-43" stroke="#FEFEFE" stroke-width="4"></path>
                <path d="M52.3409273,51.7966869 L59.7684309,39.6425901" id="Fill-45" fill="#FEFEFE"></path>
                <path d="M52.3409273,51.7966869 L56.0546791,40.9930453" id="Stroke-47" stroke="#FEFEFE" stroke-width="4"></path>
                <path d="M9.35143686,49.5459282 L43.2253547,55.3979007" id="Fill-49" fill="#FEFEFE"></path>
                <path d="M14.8123546,48.4205489 L43.2253547,55.3979007" id="Stroke-51" stroke="#FEFEFE" stroke-width="4"></path>
                <path d="M5.750223,13.9839413 L23.7562923,34.0156934" id="Fill-53" fill="#FEFEFE"></path>
                <path d="M10.9002764,12.0707965 L27.5311793,34.0156934" id="Stroke-55" stroke="#FEFEFE" stroke-width="4"></path>
                <path d="M7.1006782,12.6334861 L57.2925964,35.1410728" id="Fill-57" fill="#FEFEFE"></path>
                <path d="M33.8847063,43.6939557 L44.463272,53.1471421" id="Fill-61" fill="#FEFEFE"></path>
                <path d="M33.8847063,43.6939557 L44.463272,53.1471421" id="Stroke-63" stroke="#FEFEFE" stroke-width="4"></path>
            </g>
        </g>
    </g>
</svg>