<svg width="725" height="143" xmlns="http://www.w3.org/2000/svg">
  <g fill="none" fill-rule="evenodd">
    <path d="M463.4016 64.0948c0-22.404 18.52-40.446 40.964-39.404 20.04.93 36.157 17.214 37.213 37.248 1.201 22.764-16.749 41.602-39.06 41.602-8.747 0-16.823-2.896-23.339-7.788v46.251h-15.778zm197.8892-39.7729v38.789l.003.392c.21 12.89 10.725 23.276 23.665 23.276 13.071 0 23.667-10.596 23.668-23.667v-38.79h15.778v77.578c0 21.786-17.66 39.446-39.446 39.446-5.42 0-10.584-1.092-15.285-3.07l7.42-14.046c2.461.866 5.108 1.338 7.865 1.338 13.071 0 23.668-10.597 23.668-23.668 0-.219-.003-.436-.009-.653l.009-.004.001-6.608c-6.597 4.974-14.804 7.922-23.698 7.922-21.55 0-39.061-17.306-39.412-38.788h-.005v-39.447h15.778zm-479.6229.0713c16.085 0 29.934 9.517 36.163 23.195l-14.803 6.365c-3.766-7.914-11.871-13.387-21.261-13.387-12.984 0-23.509 10.464-23.509 23.372s10.525 23.372 23.509 23.372c10.299 0 19.051-6.585 22.23-15.751l14.972 5.757c-5.538 15.149-20.149 25.971-37.301 25.971-21.913 0-39.677-17.662-39.677-39.448 0-21.785 17.764-39.446 39.677-39.446zm175.2287-.0715c5.488 0 10.713 1.121 15.461 3.145l-7.18 14.124c-2.577-.964-5.368-1.49-8.281-1.49-13.072 0-23.669 10.596-23.669 23.668v39.446h-15.778v-39.446c0-21.786 17.661-39.447 39.447-39.447zm237.3359.0005c21.785 0 39.446 17.661 39.446 39.446v39.446h-15.778v-7.885c-6.593 4.951-14.788 7.885-23.668 7.885-21.785 0-39.446-17.66-39.446-39.446 0-21.785 17.661-39.446 39.446-39.446zm-328.0631 0c21.785 0 39.446 17.661 39.446 39.446v39.446h-15.779v-7.885c-6.592 4.951-14.787 7.885-23.667 7.885-21.785 0-39.446-17.66-39.446-39.446 0-21.785 17.661-39.446 39.446-39.446zm146.2595-.2476c13.768 0 26.007 6.906 33.013 17.558 2.98 4.531 4.469 6.796 4.469 6.796l-52.16 33.873c4.066 3.184 9.198 5.084 14.777 5.084 10.611 0 19.607-6.873 22.73-16.385h16.136c-3.516 18.209-19.625 31.967-38.965 31.967-21.912 0-39.677-17.661-39.677-39.447s17.765-39.446 39.677-39.446zm90.4967 16.2302c-12.998 0-23.535 10.686-23.535 23.867 0 13.18 10.537 23.866 23.535 23.866s23.535-10.686 23.535-23.866c0-13.181-10.537-23.867-23.535-23.867zm91.5499.2614c-12.93 0-23.412 10.464-23.412 23.372s10.482 23.372 23.412 23.372 23.411-10.464 23.411-23.372-10.481-23.372-23.411-23.372zm-328.0631 0c-12.93 0-23.412 10.464-23.412 23.372s10.482 23.372 23.412 23.372 23.412-10.464 23.412-23.372-10.482-23.372-23.412-23.372zm146.1155-.3946c-13.202 0-23.905 10.641-23.905 23.767 0 1.856.214 3.662.618 5.395l37.611-24.425c-3.993-2.974-8.951-4.737-14.324-4.737z" fill="#FFF"/>
    <path d="M26.5321 10.8566l8.883 13.181c21.795-14.714 51.394-8.938 66.112 12.901 14.844 22.026 8.88 51.98-13.381 66.56-21.781 14.268-51.31 8.169-65.734-13.556-2.262-3.407-4.029-7-5.319-10.694-.751-2.152.081-4.541 1.967-5.814l34.12-23.035c7.543-5.093 17.891-2.822 22.579 5.159 4.016 6.839 2.285 15.78-3.991 20.61-7.325 5.637-17.766 3.851-22.86-3.707l-13.154 8.881c10.09 14.972 30.673 18.619 45.299 7.732 13.059-9.72 16.611-28.067 8.13-41.991-9.499-15.595-29.943-19.953-44.885-9.865l-29.415 19.858-8.295 5.6.005.008c-5.644 4.087-7.998 11.4-5.749 18.049l1.234 3.652-.01-.017c.047.14.096.28.146.419l.006.016c1.757 4.943 4.158 9.749 7.225 14.3 19.792 29.369 59.769 36.95 88.896 16.69 28.073-19.528 35.584-58.318 16.841-86.981-19.445-29.74-59.341-37.743-88.65-17.956" fill="#4285F9"/>
  </g>
</svg>
