<svg xmlns="http://www.w3.org/2000/svg" width="270" height="200" viewBox="0 0 270 200">
  <g fill="none" fill-rule="evenodd">
    <g transform="translate(22 25)">
      <path fill="#E4E4E4" d="M34,1.5 L193,1.5 C201.836556,1.5 209,8.663444 209,17.5 L209,135.5 L18,135.5 L18,17.5 C18,8.663444 25.163444,1.5 34,1.5 Z"/>
      <path stroke="#6590DC" stroke-linecap="square" stroke-width="3" d="M0.49999993,0.714285714 L0.49999993,0.714285714 L39.4999999,0.714285714 L39.5000001,45.2857143 L0.49999993,45.2857143 L0.49999993,0.714285714 Z M32.6904762,27.0519481 L19.7072347,27.0519481 L32.6904762,27.0519481 Z M12.8759579,27.0519481 L9.16666663,27.0519481 L12.8759579,27.0519481 Z M24.9005313,35.1558442 L19.7072347,35.1558442 L24.9005313,35.1558442 Z M12.8759579,35.1558442 L9.16666663,35.1558442 L12.8759579,35.1558442 Z M27.4971796,18.9480519 L19.7072347,18.9480519 L27.4971796,18.9480519 Z M12.8759579,18.9480519 L9.16666663,18.9480519 L12.8759579,18.9480519 Z M32.6904762,10.8441558 L19.7072347,10.8441558 L32.6904762,10.8441558 Z M12.8759579,10.8441558 L9.16666663,10.8441558 L12.8759579,10.8441558 Z" transform="translate(51 40)"/>
      <path stroke="#6792DE" stroke-linecap="square" stroke-width="3" d="M159.321429,59.2784534 C162.214349,59.2784534 164.559524,57.0115435 164.559524,54.2151685 C164.559524,51.4187935 162.214349,49.1518836 159.321429,49.1518836 C156.428508,49.1518836 154.083333,51.4187935 154.083333,54.2151685 C154.083333,57.0115435 156.428508,59.2784534 159.321429,59.2784534 Z M142.559524,47.1265697 C145.452444,47.1265697 147.797619,44.8596599 147.797619,42.0632849 C147.797619,39.2669098 145.452444,37 142.559524,37 C139.666604,37 137.321429,39.2669098 137.321429,42.0632849 C137.321429,44.8596599 139.666604,47.1265697 142.559524,47.1265697 Z M151.988095,67.3797091 L162.464286,67.3797091 C168.366571,67.3797091 168.75,71.430337 168.75,71.430337 L144.099524,80.5948826 C142.450571,81.2085527 140.610952,81.1214642 139.031143,80.3579209 L124.75,73.4556509 L124.75,59.2784534 L126.845238,59.2784534 C129.160476,59.2784534 135.029238,60.1655409 137.321429,63.3290812 L143.607143,63.3290812 C148.235524,63.3290812 151.988095,66.9564185 151.988095,71.430337 L137.321429,71.430337"/>
      <path stroke="#0E1923" stroke-linecap="square" stroke-width="4" d="M196.485783,158.05896 L30.5142167,158.05896 C13.8491626,158.05896 0.337568226,147.321681 0.337568226,134.078437 L0.337568226,134.078437 L226.662432,134.078437 L226.662432,134.078437 C226.662432,147.321681 213.150837,158.05896 196.485783,158.05896 Z M17.8749997,112.053682 L17.8749997,14.8301205 C17.8749997,7.15640361 25.0070309,0.941040195 33.8124997,0.941040195 L193.1875,0.941040195 C201.992969,0.941040195 209.125,7.15640361 209.125,14.8301205 L209.125,112.053682 M105.53125,11.7192007 L121.46875,11.7192007"/>
    </g>
    <rect width="270" height="200"/>
  </g>
</svg>
