<svg xmlns="http://www.w3.org/2000/svg" width="270" height="200" viewBox="0 0 270 200">
  <g fill="none" fill-rule="evenodd">
    <rect width="270" height="200"/>
    <g transform="translate(100 38)">
      <rect width="70" height="91.5" y="1" fill="#E4E4E4" rx="9"/>
      <path stroke="#6792DE" stroke-linecap="square" stroke-width="2.5" d="M25.722488,15.3821682 L33.0717703,15.3821682 M25.722488,21.2488348 L33.0717703,21.2488348 M5.51196172,28.1821681 C5.51196172,24.2053681 7.97948325,20.9821682 11.0239234,20.9821682 L14.6985646,20.9821682 C17.7430048,20.9821682 20.2105263,24.2053681 20.2105263,28.1821681 L5.51196172,28.1821681 Z M33.0717703,0.448834823 C33.0717703,2.41327927 31.4273684,4.00439038 29.3971292,4.00439038 C27.36689,4.00439038 25.722488,2.41327927 25.722488,0.448834823 L14.6985646,0.448834823 C14.6985646,2.41327927 13.0541627,4.00439038 11.0239234,4.00439038 C8.99368421,4.00439038 7.3492823,2.41327927 7.3492823,0.448834823 L-9.59232693e-14,0.448834823 L-9.59232693e-14,32.4488348 L40.4210526,32.4488348 L40.4210526,0.448834823 L33.0717703,0.448834823 Z M12.861244,17.5155015 C14.8906923,17.5155015 16.5358852,15.8440312 16.5358852,13.7821682 C16.5358852,11.7203051 14.8906923,10.0488348 12.861244,10.0488348 C10.8317958,10.0488348 9.18660287,11.7203051 9.18660287,13.7821682 C9.18660287,15.8440312 10.8317958,17.5155015 12.861244,17.5155015 Z" transform="translate(15 30)"/>
      <path stroke="#0E1923" stroke-linecap="square" stroke-width="4" d="M69.1440207,102.389199 C69.1298634,108.024511 65.2906148,112.588653 60.5503232,112.605483 L8.98813833,112.605483 C4.24784678,112.588653 0.408598115,108.024511 0.394440853,102.389199 L0.394440853,10.4426457 C0.408598115,4.80733406 4.24784678,0.243192286 8.98813833,0.226361975 L60.5503232,0.226361975 C65.2906148,0.243192286 69.1298634,4.80733406 69.1440207,10.4426457 L69.1440207,102.389199 Z M0.394440853,92.1729154 L69.1440207,92.1729154" transform="translate(1)"/>
    </g>
  </g>
</svg>
