<svg xmlns="http://www.w3.org/2000/svg" width="120" height="120" viewBox="0 0 120 120">
  <g fill="none" fill-rule="evenodd" transform="translate(1 1)">
    <circle cx="59" cy="59" r="59" stroke="#DDD"/>
    <ellipse cx="59.5" cy="82" fill="#6792DE" fill-opacity=".5" rx="36.5" ry="36"/>
    <path fill="#000" fill-rule="nonzero" d="M43.01,85.55 C44.8500092,85.8500015 46.2599951,86.5349947 47.24,87.605 C48.2200049,88.6750054 48.71,89.9999921 48.71,91.58 C48.71,92.8000061 48.3900032,93.9249949 47.75,94.955 C47.1099968,95.9850052 46.1350066,96.8099969 44.825,97.43 C43.5149935,98.0500031 41.9100095,98.36 40.01,98.36 C38.5299926,98.36 37.0750072,98.165002 35.645,97.775 C34.2149929,97.3849981 33.000005,96.8300036 32,96.11 L33.89,92.39 C34.690004,92.990003 35.6149948,93.4549984 36.665,93.785 C37.7150053,94.1150017 38.7899945,94.28 39.89,94.28 C41.1100061,94.28 42.0699965,94.0450024 42.77,93.575 C43.4700035,93.1049977 43.82,92.4400043 43.82,91.58 C43.82,89.8599914 42.5100131,89 39.89,89 L37.67,89 L37.67,85.79 L41.99,80.9 L33.05,80.9 L33.05,77 L47.75,77 L47.75,80.15 L43.01,85.55 Z M67.13,77 L67.13,80.15 L59.33,98 L54.05,98 L61.58,80.96 L54.62,80.96 L54.62,84.38 L50.3,84.38 L50.3,77 L67.13,77 Z M72.14,91.56 C71.1133282,91.56 70.2766699,91.2100035 69.63,90.51 C68.9833301,89.8099965 68.66,88.8733392 68.66,87.7 C68.66,86.5266608 68.9833301,85.5900035 69.63,84.89 C70.2766699,84.1899965 71.1133282,83.84 72.14,83.84 C73.1666718,83.84 73.9999968,84.1899965 74.64,84.89 C75.2800032,85.5900035 75.6,86.5266608 75.6,87.7 C75.6,88.8733392 75.2800032,89.8099965 74.64,90.51 C73.9999968,91.2100035 73.1666718,91.56 72.14,91.56 Z M80.48,84 L82.86,84 L73.3,98 L70.92,98 L80.48,84 Z M72.14,89.92 C72.5933356,89.92 72.9499987,89.7333352 73.21,89.36 C73.4700013,88.9866648 73.6,88.433337 73.6,87.7 C73.6,86.966663 73.4700013,86.4133352 73.21,86.04 C72.9499987,85.6666648 72.5933356,85.48 72.14,85.48 C71.6999978,85.48 71.346668,85.6699981 71.08,86.05 C70.813332,86.4300019 70.68,86.98 70.68,87.7 C70.68,88.4200036 70.813332,88.9699981 71.08,89.35 C71.346668,89.7300019 71.6999978,89.92 72.14,89.92 Z M81.64,98.16 C80.97333,98.16 80.3766693,98.0033349 79.85,97.69 C79.3233307,97.3766651 78.9133348,96.9266696 78.62,96.34 C78.3266652,95.7533304 78.18,95.0733372 78.18,94.3 C78.18,93.5266628 78.3266652,92.8466696 78.62,92.26 C78.9133348,91.6733304 79.3233307,91.2233349 79.85,90.91 C80.3766693,90.5966651 80.97333,90.44 81.64,90.44 C82.6666718,90.44 83.5033301,90.7899965 84.15,91.49 C84.7966699,92.1900035 85.12,93.1266608 85.12,94.3 C85.12,95.4733392 84.7966699,96.4099965 84.15,97.11 C83.5033301,97.8100035 82.6666718,98.16 81.64,98.16 Z M81.64,96.52 C82.0933356,96.52 82.4499987,96.3300019 82.71,95.95 C82.9700013,95.5699981 83.1,95.0200036 83.1,94.3 C83.1,93.5799964 82.9700013,93.0300019 82.71,92.65 C82.4499987,92.2699981 82.0933356,92.08 81.64,92.08 C81.1999978,92.08 80.846668,92.2666648 80.58,92.64 C80.313332,93.0133352 80.18,93.566663 80.18,94.3 C80.18,95.033337 80.313332,95.5866648 80.58,95.96 C80.846668,96.3333352 81.1999978,96.52 81.64,96.52 Z"/>
  </g>
</svg>
