<svg xmlns="http://www.w3.org/2000/svg" width="120" height="120" viewBox="0 0 120 120">
  <g fill="none" fill-rule="evenodd" transform="translate(1 1)">
    <circle cx="59" cy="59" r="59" stroke="#DDD"/>
    <ellipse cx="59.5" cy="79" fill="#6792DE" fill-opacity=".5" rx="39.5" ry="39"/>
    <path fill="#000" fill-rule="nonzero" d="M43.01,85.91 C44.8500092,86.2100015 46.2599951,86.8949947 47.24,87.965 C48.2200049,89.0350054 48.71,90.3599921 48.71,91.94 C48.71,93.1600061 48.3900032,94.2849949 47.75,95.315 C47.1099968,96.3450052 46.1350066,97.1699969 44.825,97.79 C43.5149935,98.4100031 41.9100095,98.72 40.01,98.72 C38.5299926,98.72 37.0750072,98.5250019 35.645,98.135 C34.2149929,97.744998 33.000005,97.1900036 32,96.47 L33.89,92.75 C34.690004,93.350003 35.6149948,93.8149983 36.665,94.145 C37.7150053,94.4750017 38.7899945,94.64 39.89,94.64 C41.1100061,94.64 42.0699965,94.4050024 42.77,93.935 C43.4700035,93.4649976 43.82,92.8000043 43.82,91.94 C43.82,90.2199914 42.5100131,89.36 39.89,89.36 L37.67,89.36 L37.67,86.15 L41.99,81.26 L33.05,81.26 L33.05,77.36 L47.75,77.36 L47.75,80.51 L43.01,85.91 Z M61.07,85.19 C62.4100067,85.19 63.6299945,85.4599973 64.73,86 C65.8300055,86.5400027 66.6999968,87.3049951 67.34,88.295 C67.9800032,89.285005 68.3,90.4299935 68.3,91.73 C68.3,93.130007 67.9500035,94.3599947 67.25,95.42 C66.5499965,96.4800053 65.5950061,97.2949972 64.385,97.865 C63.174994,98.4350028 61.8300074,98.72 60.35,98.72 C57.4099853,98.72 55.1100083,97.820009 53.45,96.02 C51.7899917,94.219991 50.96,91.6500167 50.96,88.31 C50.96,85.9299881 51.4099955,83.8900085 52.31,82.19 C53.2100045,80.4899915 54.464992,79.2000044 56.075,78.32 C57.6850081,77.4399956 59.5499894,77 61.67,77 C62.7900056,77 63.8649949,77.1249988 64.895,77.375 C65.9250052,77.6250013 66.7999964,77.9799977 67.52,78.44 L65.72,82.01 C64.6799948,81.3099965 63.3700079,80.96 61.79,80.96 C60.0099911,80.96 58.6000052,81.4799948 57.56,82.52 C56.5199948,83.5600052 55.9600004,85.0699901 55.88,87.05 C57.1200062,85.8099938 58.8499889,85.19 61.07,85.19 Z M60.08,95.09 C61.1200052,95.09 61.9649968,94.8100028 62.615,94.25 C63.2650033,93.6899972 63.59,92.9300048 63.59,91.97 C63.59,91.0099952 63.2650033,90.2450028 62.615,89.675 C61.9649968,89.1049972 61.1000054,88.82 60.02,88.82 C58.9599947,88.82 58.0900034,89.114997 57.41,89.705 C56.7299966,90.295003 56.39,91.0499954 56.39,91.97 C56.39,92.8900046 56.7199967,93.6399971 57.38,94.22 C58.0400033,94.8000029 58.9399943,95.09 60.08,95.09 Z M72.92,91.92 C71.8933282,91.92 71.0566699,91.5700035 70.41,90.87 C69.7633301,90.1699965 69.44,89.2333392 69.44,88.06 C69.44,86.8866608 69.7633301,85.9500035 70.41,85.25 C71.0566699,84.5499965 71.8933282,84.2 72.92,84.2 C73.9466718,84.2 74.7799968,84.5499965 75.42,85.25 C76.0600032,85.9500035 76.38,86.8866608 76.38,88.06 C76.38,89.2333392 76.0600032,90.1699965 75.42,90.87 C74.7799968,91.5700035 73.9466718,91.92 72.92,91.92 Z M81.26,84.36 L83.64,84.36 L74.08,98.36 L71.7,98.36 L81.26,84.36 Z M72.92,90.28 C73.3733356,90.28 73.7299987,90.0933352 73.99,89.72 C74.2500013,89.3466648 74.38,88.793337 74.38,88.06 C74.38,87.326663 74.2500013,86.7733352 73.99,86.4 C73.7299987,86.0266648 73.3733356,85.84 72.92,85.84 C72.4799978,85.84 72.126668,86.0299981 71.86,86.41 C71.593332,86.7900019 71.46,87.34 71.46,88.06 C71.46,88.7800036 71.593332,89.3299981 71.86,89.71 C72.126668,90.0900019 72.4799978,90.28 72.92,90.28 Z M82.42,98.52 C81.75333,98.52 81.1566693,98.3633349 80.63,98.05 C80.1033307,97.7366651 79.6933348,97.2866696 79.4,96.7 C79.1066652,96.1133304 78.96,95.4333372 78.96,94.66 C78.96,93.8866628 79.1066652,93.2066696 79.4,92.62 C79.6933348,92.0333304 80.1033307,91.5833349 80.63,91.27 C81.1566693,90.9566651 81.75333,90.8 82.42,90.8 C83.4466718,90.8 84.2833301,91.1499965 84.93,91.85 C85.5766699,92.5500035 85.9,93.4866608 85.9,94.66 C85.9,95.8333392 85.5766699,96.7699965 84.93,97.47 C84.2833301,98.1700035 83.4466718,98.52 82.42,98.52 Z M82.42,96.88 C82.8733356,96.88 83.2299987,96.6900019 83.49,96.31 C83.7500013,95.9299981 83.88,95.3800036 83.88,94.66 C83.88,93.9399964 83.7500013,93.3900019 83.49,93.01 C83.2299987,92.6299981 82.8733356,92.44 82.42,92.44 C81.9799978,92.44 81.626668,92.6266648 81.36,93 C81.093332,93.3733352 80.96,93.926663 80.96,94.66 C80.96,95.393337 81.093332,95.9466648 81.36,96.32 C81.626668,96.6933352 81.9799978,96.88 82.42,96.88 Z"/>
  </g>
</svg>
