<svg xmlns="http://www.w3.org/2000/svg" width="120" height="120" viewBox="0 0 120 120">
  <g fill="none" fill-rule="evenodd" transform="translate(1 1)">
    <circle cx="59" cy="59" r="59" stroke="#DDD"/>
    <ellipse cx="59.5" cy="86" fill="#6792DE" fill-opacity=".5" rx="32.5" ry="32"/>
    <path fill="#000" fill-rule="nonzero" d="M49.83,94.4 L49.83,98.36 L33.96,98.36 L33.96,95.21 L42.06,87.56 C42.9200043,86.7399959 43.4999985,86.035003 43.8,85.445 C44.1000015,84.8549971 44.25,84.2700029 44.25,83.69 C44.25,82.8499958 43.9650028,82.2050023 43.395,81.755 C42.8249972,81.3049977 41.9900055,81.08 40.89,81.08 C39.9699954,81.08 39.1400037,81.2549983 38.4,81.605 C37.6599963,81.9550018 37.0400025,82.4799965 36.54,83.18 L33,80.9 C33.8200041,79.6799939 34.9499928,78.7250035 36.39,78.035 C37.8300072,77.3449966 39.4799907,77 41.34,77 C42.9000078,77 44.2649941,77.2549975 45.435,77.765 C46.6050058,78.2750026 47.5149967,78.9949954 48.165,79.925 C48.8150032,80.8550047 49.14,81.9499937 49.14,83.21 C49.14,84.3500057 48.9000024,85.419995 48.42,86.42 C47.9399976,87.420005 47.0100069,88.5599936 45.63,89.84 L40.8,94.4 L49.83,94.4 Z M59.04,85.25 C62.0000148,85.25 64.1849929,85.8399941 65.595,87.02 C67.005007,88.2000059 67.71,89.7799901 67.71,91.76 C67.71,93.0400064 67.3900032,94.2049948 66.75,95.255 C66.1099968,96.3050053 65.1350065,97.1449968 63.825,97.775 C62.5149934,98.4050032 60.9000096,98.72 58.98,98.72 C57.4999926,98.72 56.0450072,98.5250019 54.615,98.135 C53.1849928,97.744998 51.970005,97.1900036 50.97,96.47 L52.89,92.75 C53.690004,93.350003 54.6099948,93.8149983 55.65,94.145 C56.6900052,94.4750017 57.7599945,94.64 58.86,94.64 C60.0800061,94.64 61.0399965,94.4000024 61.74,93.92 C62.4400035,93.4399976 62.79,92.7700043 62.79,91.91 C62.79,91.0099955 62.4250036,90.3300023 61.695,89.87 C60.9649963,89.4099977 59.700009,89.18 57.9,89.18 L52.53,89.18 L53.61,77.36 L66.42,77.36 L66.42,81.26 L57.66,81.26 L57.33,85.25 L59.04,85.25 Z M72.54,91.92 C71.5133282,91.92 70.6766699,91.5700035 70.03,90.87 C69.3833301,90.1699965 69.06,89.2333392 69.06,88.06 C69.06,86.8866608 69.3833301,85.9500035 70.03,85.25 C70.6766699,84.5499965 71.5133282,84.2 72.54,84.2 C73.5666718,84.2 74.3999968,84.5499965 75.04,85.25 C75.6800032,85.9500035 76,86.8866608 76,88.06 C76,89.2333392 75.6800032,90.1699965 75.04,90.87 C74.3999968,91.5700035 73.5666718,91.92 72.54,91.92 Z M80.88,84.36 L83.26,84.36 L73.7,98.36 L71.32,98.36 L80.88,84.36 Z M72.54,90.28 C72.9933356,90.28 73.3499987,90.0933352 73.61,89.72 C73.8700013,89.3466648 74,88.793337 74,88.06 C74,87.326663 73.8700013,86.7733352 73.61,86.4 C73.3499987,86.0266648 72.9933356,85.84 72.54,85.84 C72.0999978,85.84 71.746668,86.0299981 71.48,86.41 C71.213332,86.7900019 71.08,87.34 71.08,88.06 C71.08,88.7800036 71.213332,89.3299981 71.48,89.71 C71.746668,90.0900019 72.0999978,90.28 72.54,90.28 Z M82.04,98.52 C81.37333,98.52 80.7766693,98.3633349 80.25,98.05 C79.7233307,97.7366651 79.3133348,97.2866696 79.02,96.7 C78.7266652,96.1133304 78.58,95.4333372 78.58,94.66 C78.58,93.8866628 78.7266652,93.2066696 79.02,92.62 C79.3133348,92.0333304 79.7233307,91.5833349 80.25,91.27 C80.7766693,90.9566651 81.37333,90.8 82.04,90.8 C83.0666718,90.8 83.9033301,91.1499965 84.55,91.85 C85.1966699,92.5500035 85.52,93.4866608 85.52,94.66 C85.52,95.8333392 85.1966699,96.7699965 84.55,97.47 C83.9033301,98.1700035 83.0666718,98.52 82.04,98.52 Z M82.04,96.88 C82.4933356,96.88 82.8499987,96.6900019 83.11,96.31 C83.3700013,95.9299981 83.5,95.3800036 83.5,94.66 C83.5,93.9399964 83.3700013,93.3900019 83.11,93.01 C82.8499987,92.6299981 82.4933356,92.44 82.04,92.44 C81.5999978,92.44 81.246668,92.6266648 80.98,93 C80.713332,93.3733352 80.58,93.926663 80.58,94.66 C80.58,95.393337 80.713332,95.9466648 80.98,96.32 C81.246668,96.6933352 81.5999978,96.88 82.04,96.88 Z"/>
  </g>
</svg>
